<svg width="1403" height="119" viewBox="0 0 1403 119" fill="none" xmlns="http://www.w3.org/2000/svg">
<path d="M12.7005 45L0.768646 1.36364H6.13796L15.2573 36.9034H15.6834L24.9732 1.36364H30.9391L40.2289 36.9034H40.655L49.7743 1.36364H55.1437L43.2118 45H37.7573L28.1266 10.2273H27.7857L18.155 45H12.7005Z" fill="black"/>
<path d="M71.7204 45.6818C68.5669 45.6818 65.8468 44.9858 63.5598 43.5938C61.2871 42.1875 59.5328 40.2273 58.2971 37.7131C57.0755 35.1847 56.4647 32.2443 56.4647 28.892C56.4647 25.5398 57.0755 22.5852 58.2971 20.0284C59.5328 17.4574 61.2516 15.4545 63.4533 14.0199C65.6692 12.571 68.2544 11.8466 71.209 11.8466C72.9135 11.8466 74.5968 12.1307 76.2587 12.6989C77.9206 13.267 79.4334 14.1903 80.7971 15.4688C82.1607 16.733 83.2473 18.4091 84.057 20.4972C84.8667 22.5852 85.2715 25.1562 85.2715 28.2102V30.3409H60.0442V25.9943H80.1579C80.1579 24.1477 79.7885 22.5 79.0499 21.0511C78.3255 19.6023 77.2885 18.4588 75.9391 17.6207C74.6039 16.7827 73.0272 16.3636 71.209 16.3636C69.2061 16.3636 67.4732 16.8608 66.0101 17.8551C64.5613 18.8352 63.4462 20.1136 62.665 21.6903C61.8837 23.267 61.4931 24.9574 61.4931 26.7614V29.6591C61.4931 32.1307 61.9192 34.2259 62.7715 35.9446C63.638 37.6491 64.8382 38.9489 66.3723 39.8438C67.9064 40.7244 69.6891 41.1648 71.7204 41.1648C73.0414 41.1648 74.2346 40.9801 75.2999 40.6108C76.3794 40.2273 77.3098 39.6591 78.0911 38.9062C78.8723 38.1392 79.476 37.1875 79.9022 36.0511L84.7601 37.4148C84.2488 39.0625 83.3894 40.5114 82.182 41.7614C80.9746 42.9972 79.4831 43.9631 77.7076 44.6591C75.932 45.3409 73.9363 45.6818 71.7204 45.6818Z" fill="black"/>
<path d="M114.824 1.36364V45H109.796V1.36364H114.824Z" fill="black"/>
<path d="M137.329 45.6818C134.375 45.6818 131.782 44.9787 129.552 43.5724C127.336 42.1662 125.604 40.1989 124.354 37.6705C123.118 35.142 122.5 32.1875 122.5 28.8068C122.5 25.3977 123.118 22.4219 124.354 19.8793C125.604 17.3366 127.336 15.3622 129.552 13.956C131.782 12.5497 134.375 11.8466 137.329 11.8466C140.284 11.8466 142.869 12.5497 145.085 13.956C147.315 15.3622 149.048 17.3366 150.284 19.8793C151.534 22.4219 152.159 25.3977 152.159 28.8068C152.159 32.1875 151.534 35.142 150.284 37.6705C149.048 40.1989 147.315 42.1662 145.085 43.5724C142.869 44.9787 140.284 45.6818 137.329 45.6818ZM137.329 41.1648C139.574 41.1648 141.42 40.5895 142.869 39.4389C144.318 38.2884 145.39 36.7756 146.086 34.9006C146.782 33.0256 147.131 30.9943 147.131 28.8068C147.131 26.6193 146.782 24.581 146.086 22.6918C145.39 20.8026 144.318 19.2756 142.869 18.1108C141.42 16.946 139.574 16.3636 137.329 16.3636C135.085 16.3636 133.238 16.946 131.79 18.1108C130.341 19.2756 129.268 20.8026 128.572 22.6918C127.876 24.581 127.528 26.6193 127.528 28.8068C127.528 30.9943 127.876 33.0256 128.572 34.9006C129.268 36.7756 130.341 38.2884 131.79 39.4389C133.238 40.5895 135.085 41.1648 137.329 41.1648Z" fill="black"/>
<path d="M173.13 45.6818C170.176 45.6818 167.583 44.9787 165.353 43.5724C163.137 42.1662 161.404 40.1989 160.154 37.6705C158.919 35.142 158.301 32.1875 158.301 28.8068C158.301 25.3977 158.919 22.4219 160.154 19.8793C161.404 17.3366 163.137 15.3622 165.353 13.956C167.583 12.5497 170.176 11.8466 173.13 11.8466C176.085 11.8466 178.67 12.5497 180.886 13.956C183.116 15.3622 184.849 17.3366 186.085 19.8793C187.335 22.4219 187.96 25.3977 187.96 28.8068C187.96 32.1875 187.335 35.142 186.085 37.6705C184.849 40.1989 183.116 42.1662 180.886 43.5724C178.67 44.9787 176.085 45.6818 173.13 45.6818ZM173.13 41.1648C175.374 41.1648 177.221 40.5895 178.67 39.4389C180.119 38.2884 181.191 36.7756 181.887 34.9006C182.583 33.0256 182.931 30.9943 182.931 28.8068C182.931 26.6193 182.583 24.581 181.887 22.6918C181.191 20.8026 180.119 19.2756 178.67 18.1108C177.221 16.946 175.374 16.3636 173.13 16.3636C170.886 16.3636 169.039 16.946 167.59 18.1108C166.142 19.2756 165.069 20.8026 164.373 22.6918C163.677 24.581 163.329 26.6193 163.329 28.8068C163.329 30.9943 163.677 33.0256 164.373 34.9006C165.069 36.7756 166.142 38.2884 167.59 39.4389C169.039 40.5895 170.886 41.1648 173.13 41.1648Z" fill="black"/>
<path d="M200.323 33.0682L200.238 26.8466H201.26L215.579 12.2727H221.8L206.545 27.6989H206.118L200.323 33.0682ZM195.635 45V1.36364H200.664V45H195.635ZM216.431 45L203.647 28.8068L207.226 25.3125L222.823 45H216.431Z" fill="black"/>
<path d="M259.38 12.2727V16.5341H242.42V12.2727H259.38ZM247.363 4.43182H252.392V35.625C252.392 37.0455 252.597 38.1108 253.009 38.821C253.436 39.517 253.975 39.9858 254.629 40.2273C255.296 40.4545 255.999 40.5682 256.738 40.5682C257.292 40.5682 257.747 40.5398 258.102 40.483C258.457 40.4119 258.741 40.3551 258.954 40.3125L259.977 44.8295C259.636 44.9574 259.16 45.0852 258.549 45.2131C257.938 45.3551 257.164 45.4261 256.227 45.4261C254.806 45.4261 253.414 45.1207 252.051 44.5099C250.701 43.8991 249.579 42.9688 248.684 41.7188C247.803 40.4688 247.363 38.892 247.363 36.9886V4.43182Z" fill="black"/>
<path d="M279.888 45.6818C276.933 45.6818 274.341 44.9787 272.111 43.5724C269.895 42.1662 268.162 40.1989 266.912 37.6705C265.676 35.142 265.058 32.1875 265.058 28.8068C265.058 25.3977 265.676 22.4219 266.912 19.8793C268.162 17.3366 269.895 15.3622 272.111 13.956C274.341 12.5497 276.933 11.8466 279.888 11.8466C282.843 11.8466 285.428 12.5497 287.644 13.956C289.874 15.3622 291.607 17.3366 292.842 19.8793C294.092 22.4219 294.717 25.3977 294.717 28.8068C294.717 32.1875 294.092 35.142 292.842 37.6705C291.607 40.1989 289.874 42.1662 287.644 43.5724C285.428 44.9787 282.843 45.6818 279.888 45.6818ZM279.888 41.1648C282.132 41.1648 283.979 40.5895 285.428 39.4389C286.877 38.2884 287.949 36.7756 288.645 34.9006C289.341 33.0256 289.689 30.9943 289.689 28.8068C289.689 26.6193 289.341 24.581 288.645 22.6918C287.949 20.8026 286.877 19.2756 285.428 18.1108C283.979 16.946 282.132 16.3636 279.888 16.3636C277.644 16.3636 275.797 16.946 274.348 18.1108C272.899 19.2756 271.827 20.8026 271.131 22.6918C270.435 24.581 270.087 26.6193 270.087 28.8068C270.087 30.9943 270.435 33.0256 271.131 34.9006C271.827 36.7756 272.899 38.2884 274.348 39.4389C275.797 40.5895 277.644 41.1648 279.888 41.1648Z" fill="black"/>
<path d="M319.268 45V12.2727H324.126V17.2159H324.467C325.064 15.5966 326.143 14.2827 327.706 13.2741C329.268 12.2656 331.03 11.7614 332.99 11.7614C333.359 11.7614 333.821 11.7685 334.375 11.7827C334.929 11.7969 335.348 11.8182 335.632 11.8466V16.9602C335.461 16.9176 335.071 16.8537 334.46 16.7685C333.863 16.669 333.231 16.6193 332.564 16.6193C330.973 16.6193 329.552 16.9531 328.302 17.6207C327.067 18.2741 326.086 19.1832 325.362 20.348C324.652 21.4986 324.297 22.8125 324.297 24.2898V45H319.268Z" fill="black"/>
<path d="M354.318 45.6818C351.165 45.6818 348.444 44.9858 346.158 43.5938C343.885 42.1875 342.131 40.2273 340.895 37.7131C339.673 35.1847 339.062 32.2443 339.062 28.892C339.062 25.5398 339.673 22.5852 340.895 20.0284C342.131 17.4574 343.849 15.4545 346.051 14.0199C348.267 12.571 350.852 11.8466 353.807 11.8466C355.511 11.8466 357.194 12.1307 358.856 12.6989C360.518 13.267 362.031 14.1903 363.395 15.4688C364.758 16.733 365.845 18.4091 366.655 20.4972C367.464 22.5852 367.869 25.1562 367.869 28.2102V30.3409H342.642V25.9943H362.755C362.755 24.1477 362.386 22.5 361.648 21.0511C360.923 19.6023 359.886 18.4588 358.537 17.6207C357.202 16.7827 355.625 16.3636 353.807 16.3636C351.804 16.3636 350.071 16.8608 348.608 17.8551C347.159 18.8352 346.044 20.1136 345.263 21.6903C344.481 23.267 344.091 24.9574 344.091 26.7614V29.6591C344.091 32.1307 344.517 34.2259 345.369 35.9446C346.236 37.6491 347.436 38.9489 348.97 39.8438C350.504 40.7244 352.287 41.1648 354.318 41.1648C355.639 41.1648 356.832 40.9801 357.898 40.6108C358.977 40.2273 359.908 39.6591 360.689 38.9062C361.47 38.1392 362.074 37.1875 362.5 36.0511L367.358 37.4148C366.846 39.0625 365.987 40.5114 364.78 41.7614C363.572 42.9972 362.081 43.9631 360.305 44.6591C358.53 45.3409 356.534 45.6818 354.318 45.6818Z" fill="black"/>
<path d="M401.284 12.2727L389.181 45H384.068L371.965 12.2727H377.42L386.454 38.3523H386.795L395.829 12.2727H401.284Z" fill="black"/>
<path d="M420.044 45.6818C417.09 45.6818 414.497 44.9787 412.267 43.5724C410.051 42.1662 408.318 40.1989 407.068 37.6705C405.833 35.142 405.215 32.1875 405.215 28.8068C405.215 25.3977 405.833 22.4219 407.068 19.8793C408.318 17.3366 410.051 15.3622 412.267 13.956C414.497 12.5497 417.09 11.8466 420.044 11.8466C422.999 11.8466 425.584 12.5497 427.8 13.956C430.03 15.3622 431.763 17.3366 432.999 19.8793C434.249 22.4219 434.874 25.3977 434.874 28.8068C434.874 32.1875 434.249 35.142 432.999 37.6705C431.763 40.1989 430.03 42.1662 427.8 43.5724C425.584 44.9787 422.999 45.6818 420.044 45.6818ZM420.044 41.1648C422.289 41.1648 424.135 40.5895 425.584 39.4389C427.033 38.2884 428.105 36.7756 428.801 34.9006C429.497 33.0256 429.845 30.9943 429.845 28.8068C429.845 26.6193 429.497 24.581 428.801 22.6918C428.105 20.8026 427.033 19.2756 425.584 18.1108C424.135 16.946 422.289 16.3636 420.044 16.3636C417.8 16.3636 415.953 16.946 414.504 18.1108C413.056 19.2756 411.983 20.8026 411.287 22.6918C410.591 24.581 410.243 26.6193 410.243 28.8068C410.243 30.9943 410.591 33.0256 411.287 34.9006C411.983 36.7756 413.056 38.2884 414.504 39.4389C415.953 40.5895 417.8 41.1648 420.044 41.1648Z" fill="black"/>
<path d="M447.578 1.36364V45H442.55V1.36364H447.578Z" fill="black"/>
<path d="M477.413 31.6193V12.2727H482.441V45H477.413V39.4602H477.072C476.305 41.1222 475.112 42.5355 473.492 43.7003C471.873 44.8509 469.828 45.4261 467.356 45.4261C465.311 45.4261 463.492 44.9787 461.901 44.0838C460.311 43.1747 459.061 41.8111 458.151 39.9929C457.242 38.1605 456.788 35.8523 456.788 33.0682V12.2727H461.816V32.7273C461.816 35.1136 462.484 37.017 463.819 38.4375C465.168 39.858 466.887 40.5682 468.975 40.5682C470.225 40.5682 471.497 40.2486 472.789 39.6094C474.096 38.9702 475.19 37.9901 476.07 36.669C476.965 35.348 477.413 33.6648 477.413 31.6193Z" fill="black"/>
<path d="M505.884 12.2727V16.5341H488.924V12.2727H505.884ZM493.867 4.43182H498.895V35.625C498.895 37.0455 499.101 38.1108 499.513 38.821C499.939 39.517 500.479 39.9858 501.133 40.2273C501.8 40.4545 502.503 40.5682 503.242 40.5682C503.796 40.5682 504.251 40.5398 504.606 40.483C504.961 40.4119 505.245 40.3551 505.458 40.3125L506.481 44.8295C506.14 44.9574 505.664 45.0852 505.053 45.2131C504.442 45.3551 503.668 45.4261 502.731 45.4261C501.31 45.4261 499.918 45.1207 498.555 44.5099C497.205 43.8991 496.083 42.9688 495.188 41.7188C494.307 40.4688 493.867 38.892 493.867 36.9886V4.43182Z" fill="black"/>
<path d="M513.448 45V12.2727H518.476V45H513.448ZM516.005 6.81818C515.025 6.81818 514.179 6.48438 513.469 5.81676C512.773 5.14915 512.425 4.34659 512.425 3.40909C512.425 2.47159 512.773 1.66903 513.469 1.00142C514.179 0.333806 515.025 0 516.005 0C516.985 0 517.823 0.333806 518.519 1.00142C519.229 1.66903 519.584 2.47159 519.584 3.40909C519.584 4.34659 519.229 5.14915 518.519 5.81676C517.823 6.48438 516.985 6.81818 516.005 6.81818Z" fill="black"/>
<path d="M540.982 45.6818C538.027 45.6818 535.435 44.9787 533.205 43.5724C530.989 42.1662 529.256 40.1989 528.006 37.6705C526.77 35.142 526.152 32.1875 526.152 28.8068C526.152 25.3977 526.77 22.4219 528.006 19.8793C529.256 17.3366 530.989 15.3622 533.205 13.956C535.435 12.5497 538.027 11.8466 540.982 11.8466C543.936 11.8466 546.521 12.5497 548.737 13.956C550.968 15.3622 552.7 17.3366 553.936 19.8793C555.186 22.4219 555.811 25.3977 555.811 28.8068C555.811 32.1875 555.186 35.142 553.936 37.6705C552.7 40.1989 550.968 42.1662 548.737 43.5724C546.521 44.9787 543.936 45.6818 540.982 45.6818ZM540.982 41.1648C543.226 41.1648 545.073 40.5895 546.522 39.4389C547.97 38.2884 549.043 36.7756 549.739 34.9006C550.435 33.0256 550.783 30.9943 550.783 28.8068C550.783 26.6193 550.435 24.581 549.739 22.6918C549.043 20.8026 547.97 19.2756 546.522 18.1108C545.073 16.946 543.226 16.3636 540.982 16.3636C538.737 16.3636 536.891 16.946 535.442 18.1108C533.993 19.2756 532.921 20.8026 532.225 22.6918C531.529 24.581 531.181 26.6193 531.181 28.8068C531.181 30.9943 531.529 33.0256 532.225 34.9006C532.921 36.7756 533.993 38.2884 535.442 39.4389C536.891 40.5895 538.737 41.1648 540.982 41.1648Z" fill="black"/>
<path d="M568.515 25.3125V45H563.487V12.2727H568.345V17.3864H568.771C569.538 15.7244 570.703 14.3892 572.265 13.3807C573.828 12.358 575.845 11.8466 578.317 11.8466C580.532 11.8466 582.471 12.3011 584.133 13.2102C585.795 14.1051 587.088 15.4688 588.011 17.3011C588.934 19.1193 589.396 21.4205 589.396 24.2045V45H584.368V24.5455C584.368 21.9744 583.7 19.9716 582.365 18.5369C581.03 17.0881 579.197 16.3636 576.868 16.3636C575.263 16.3636 573.828 16.7116 572.564 17.4077C571.314 18.1037 570.327 19.1193 569.602 20.4545C568.878 21.7898 568.515 23.4091 568.515 25.3125Z" fill="black"/>
<path d="M598.585 45V12.2727H603.613V45H598.585ZM601.142 6.81818C600.161 6.81818 599.316 6.48438 598.606 5.81676C597.91 5.14915 597.562 4.34659 597.562 3.40909C597.562 2.47159 597.91 1.66903 598.606 1.00142C599.316 0.333806 600.161 0 601.142 0C602.122 0 602.96 0.333806 603.656 1.00142C604.366 1.66903 604.721 2.47159 604.721 3.40909C604.721 4.34659 604.366 5.14915 603.656 5.81676C602.96 6.48438 602.122 6.81818 601.142 6.81818Z" fill="black"/>
<path d="M636.005 19.6023L631.488 20.8807C631.204 20.1278 630.785 19.3963 630.231 18.6861C629.691 17.9616 628.952 17.3651 628.015 16.8963C627.077 16.4276 625.877 16.1932 624.414 16.1932C622.411 16.1932 620.742 16.6548 619.407 17.5781C618.086 18.4872 617.425 19.6449 617.425 21.0511C617.425 22.3011 617.88 23.2884 618.789 24.0128C619.698 24.7372 621.118 25.3409 623.05 25.8239L627.908 27.017C630.834 27.7273 633.015 28.8139 634.449 30.277C635.884 31.7259 636.601 33.5937 636.601 35.8807C636.601 37.7557 636.062 39.4318 634.982 40.9091C633.917 42.3864 632.425 43.5511 630.508 44.4034C628.59 45.2557 626.36 45.6818 623.817 45.6818C620.479 45.6818 617.716 44.9574 615.529 43.5085C613.341 42.0597 611.957 39.9432 611.374 37.1591L616.147 35.9659C616.601 37.7273 617.461 39.0483 618.725 39.929C620.003 40.8097 621.672 41.25 623.732 41.25C626.076 41.25 627.937 40.7528 629.314 39.7585C630.707 38.75 631.402 37.5426 631.402 36.1364C631.402 35 631.005 34.0483 630.209 33.2812C629.414 32.5 628.192 31.9176 626.545 31.5341L621.09 30.2557C618.093 29.5455 615.891 28.4446 614.485 26.9531C613.093 25.4474 612.397 23.5653 612.397 21.3068C612.397 19.4602 612.915 17.8267 613.952 16.4062C615.003 14.9858 616.431 13.8707 618.235 13.0611C620.053 12.2514 622.113 11.8466 624.414 11.8466C627.653 11.8466 630.195 12.5568 632.042 13.9773C633.903 15.3977 635.224 17.2727 636.005 19.6023Z" fill="black"/>
<path d="M657.892 45.6818C654.739 45.6818 652.019 44.9858 649.732 43.5938C647.459 42.1875 645.705 40.2273 644.469 37.7131C643.247 35.1847 642.637 32.2443 642.637 28.892C642.637 25.5398 643.247 22.5852 644.469 20.0284C645.705 17.4574 647.423 15.4545 649.625 14.0199C651.841 12.571 654.426 11.8466 657.381 11.8466C659.085 11.8466 660.769 12.1307 662.431 12.6989C664.093 13.267 665.605 14.1903 666.969 15.4688C668.333 16.733 669.419 18.4091 670.229 20.4972C671.039 22.5852 671.443 25.1562 671.443 28.2102V30.3409H646.216V25.9943H666.33C666.33 24.1477 665.96 22.5 665.222 21.0511C664.497 19.6023 663.46 18.4588 662.111 17.6207C660.776 16.7827 659.199 16.3636 657.381 16.3636C655.378 16.3636 653.645 16.8608 652.182 17.8551C650.733 18.8352 649.618 20.1136 648.837 21.6903C648.056 23.267 647.665 24.9574 647.665 26.7614V29.6591C647.665 32.1307 648.091 34.2259 648.943 35.9446C649.81 37.6491 651.01 38.9489 652.544 39.8438C654.078 40.7244 655.861 41.1648 657.892 41.1648C659.213 41.1648 660.406 40.9801 661.472 40.6108C662.551 40.2273 663.482 39.6591 664.263 38.9062C665.044 38.1392 665.648 37.1875 666.074 36.0511L670.932 37.4148C670.421 39.0625 669.561 40.5114 668.354 41.7614C667.146 42.9972 665.655 43.9631 663.879 44.6591C662.104 45.3409 660.108 45.6818 657.892 45.6818Z" fill="black"/>
<path d="M710.2 12.2727V16.5341H693.24V12.2727H710.2ZM698.183 4.43182H703.212V35.625C703.212 37.0455 703.418 38.1108 703.83 38.821C704.256 39.517 704.796 39.9858 705.449 40.2273C706.117 40.4545 706.82 40.5682 707.558 40.5682C708.112 40.5682 708.567 40.5398 708.922 40.483C709.277 40.4119 709.561 40.3551 709.774 40.3125L710.797 44.8295C710.456 44.9574 709.98 45.0852 709.369 45.2131C708.759 45.3551 707.985 45.4261 707.047 45.4261C705.627 45.4261 704.235 45.1207 702.871 44.5099C701.522 43.8991 700.399 42.9688 699.504 41.7188C698.624 40.4688 698.183 38.892 698.183 36.9886V4.43182Z" fill="black"/>
<path d="M723.496 25.3125V45H718.467V1.36364H723.496V17.3864H723.922C724.689 15.696 725.84 14.3537 727.374 13.3594C728.922 12.3509 730.982 11.8466 733.553 11.8466C735.783 11.8466 737.736 12.294 739.412 13.1889C741.088 14.0696 742.388 15.4261 743.311 17.2585C744.249 19.0767 744.717 21.392 744.717 24.2045V45H739.689V24.5455C739.689 21.946 739.014 19.9361 737.665 18.5156C736.33 17.081 734.476 16.3636 732.104 16.3636C730.456 16.3636 728.979 16.7116 727.672 17.4077C726.379 18.1037 725.357 19.1193 724.604 20.4545C723.865 21.7898 723.496 23.4091 723.496 25.3125Z" fill="black"/>
<path d="M767.638 45.6818C764.485 45.6818 761.765 44.9858 759.478 43.5938C757.205 42.1875 755.451 40.2273 754.215 37.7131C752.993 35.1847 752.383 32.2443 752.383 28.892C752.383 25.5398 752.993 22.5852 754.215 20.0284C755.451 17.4574 757.17 15.4545 759.371 14.0199C761.587 12.571 764.172 11.8466 767.127 11.8466C768.832 11.8466 770.515 12.1307 772.177 12.6989C773.839 13.267 775.351 14.1903 776.715 15.4688C778.079 16.733 779.165 18.4091 779.975 20.4972C780.785 22.5852 781.189 25.1562 781.189 28.2102V30.3409H755.962V25.9943H776.076C776.076 24.1477 775.707 22.5 774.968 21.0511C774.243 19.6023 773.207 18.4588 771.857 17.6207C770.522 16.7827 768.945 16.3636 767.127 16.3636C765.124 16.3636 763.391 16.8608 761.928 17.8551C760.479 18.8352 759.364 20.1136 758.583 21.6903C757.802 23.267 757.411 24.9574 757.411 26.7614V29.6591C757.411 32.1307 757.837 34.2259 758.689 35.9446C759.556 37.6491 760.756 38.9489 762.29 39.8438C763.824 40.7244 765.607 41.1648 767.638 41.1648C768.959 41.1648 770.153 40.9801 771.218 40.6108C772.297 40.2273 773.228 39.6591 774.009 38.9062C774.79 38.1392 775.394 37.1875 775.82 36.0511L780.678 37.4148C780.167 39.0625 779.307 40.5114 778.1 41.7614C776.893 42.9972 775.401 43.9631 773.626 44.6591C771.85 45.3409 769.854 45.6818 767.638 45.6818Z" fill="black"/>
<path d="M819.009 45.6818C815.941 45.6818 813.299 44.9574 811.083 43.5085C808.867 42.0597 807.162 40.0639 805.969 37.5213C804.776 34.9787 804.18 32.0739 804.18 28.8068C804.18 25.483 804.79 22.5497 806.012 20.0071C807.248 17.4503 808.966 15.4545 811.168 14.0199C813.384 12.571 815.969 11.8466 818.924 11.8466C821.225 11.8466 823.299 12.2727 825.145 13.125C826.992 13.9773 828.505 15.1705 829.684 16.7045C830.863 18.2386 831.594 20.0284 831.878 22.0739H826.85C826.466 20.5824 825.614 19.2614 824.293 18.1108C822.986 16.946 821.225 16.3636 819.009 16.3636C817.049 16.3636 815.33 16.875 813.853 17.8977C812.39 18.9062 811.246 20.3338 810.422 22.1804C809.613 24.0128 809.208 26.1648 809.208 28.6364C809.208 31.1648 809.606 33.3665 810.401 35.2415C811.211 37.1165 812.347 38.5724 813.81 39.6094C815.287 40.6463 817.02 41.1648 819.009 41.1648C820.316 41.1648 821.502 40.9375 822.567 40.483C823.633 40.0284 824.535 39.375 825.273 38.5227C826.012 37.6705 826.537 36.6477 826.85 35.4545H831.878C831.594 37.3864 830.891 39.1264 829.769 40.6747C828.661 42.2088 827.191 43.4304 825.358 44.3395C823.54 45.2344 821.424 45.6818 819.009 45.6818Z" fill="black"/>
<path d="M852.525 45.6818C849.57 45.6818 846.978 44.9787 844.748 43.5724C842.532 42.1662 840.799 40.1989 839.549 37.6705C838.313 35.142 837.695 32.1875 837.695 28.8068C837.695 25.3977 838.313 22.4219 839.549 19.8793C840.799 17.3366 842.532 15.3622 844.748 13.956C846.978 12.5497 849.57 11.8466 852.525 11.8466C855.479 11.8466 858.064 12.5497 860.28 13.956C862.51 15.3622 864.243 17.3366 865.479 19.8793C866.729 22.4219 867.354 25.3977 867.354 28.8068C867.354 32.1875 866.729 35.142 865.479 37.6705C864.243 40.1989 862.51 42.1662 860.28 43.5724C858.064 44.9787 855.479 45.6818 852.525 45.6818ZM852.525 41.1648C854.769 41.1648 856.616 40.5895 858.064 39.4389C859.513 38.2884 860.586 36.7756 861.282 34.9006C861.978 33.0256 862.326 30.9943 862.326 28.8068C862.326 26.6193 861.978 24.581 861.282 22.6918C860.586 20.8026 859.513 19.2756 858.064 18.1108C856.616 16.946 854.769 16.3636 852.525 16.3636C850.28 16.3636 848.434 16.946 846.985 18.1108C845.536 19.2756 844.464 20.8026 843.768 22.6918C843.072 24.581 842.724 26.6193 842.724 28.8068C842.724 30.9943 843.072 33.0256 843.768 34.9006C844.464 36.7756 845.536 38.2884 846.985 39.4389C848.434 40.5895 850.28 41.1648 852.525 41.1648Z" fill="black"/>
<path d="M880.058 25.3125V45H875.03V12.2727H879.888V17.3864H880.314C881.081 15.7244 882.246 14.3892 883.808 13.3807C885.371 12.358 887.388 11.8466 889.86 11.8466C892.075 11.8466 894.014 12.3011 895.676 13.2102C897.338 14.1051 898.631 15.4688 899.554 17.3011C900.477 19.1193 900.939 21.4205 900.939 24.2045V45H895.911V24.5455C895.911 21.9744 895.243 19.9716 893.908 18.5369C892.573 17.0881 890.74 16.3636 888.411 16.3636C886.806 16.3636 885.371 16.7116 884.107 17.4077C882.857 18.1037 881.869 19.1193 881.145 20.4545C880.421 21.7898 880.058 23.4091 880.058 25.3125Z" fill="black"/>
<path d="M933.309 19.6023L928.792 20.8807C928.508 20.1278 928.089 19.3963 927.535 18.6861C926.996 17.9616 926.257 17.3651 925.319 16.8963C924.382 16.4276 923.182 16.1932 921.719 16.1932C919.716 16.1932 918.047 16.6548 916.711 17.5781C915.39 18.4872 914.73 19.6449 914.73 21.0511C914.73 22.3011 915.185 23.2884 916.094 24.0128C917.003 24.7372 918.423 25.3409 920.355 25.8239L925.213 27.017C928.139 27.7273 930.319 28.8139 931.754 30.277C933.189 31.7259 933.906 33.5937 933.906 35.8807C933.906 37.7557 933.366 39.4318 932.287 40.9091C931.221 42.3864 929.73 43.5511 927.812 44.4034C925.895 45.2557 923.665 45.6818 921.122 45.6818C917.784 45.6818 915.021 44.9574 912.834 43.5085C910.646 42.0597 909.261 39.9432 908.679 37.1591L913.452 35.9659C913.906 37.7273 914.765 39.0483 916.03 39.929C917.308 40.8097 918.977 41.25 921.037 41.25C923.381 41.25 925.241 40.7528 926.619 39.7585C928.011 38.75 928.707 37.5426 928.707 36.1364C928.707 35 928.309 34.0483 927.514 33.2812C926.719 32.5 925.497 31.9176 923.849 31.5341L918.395 30.2557C915.398 29.5455 913.196 28.4446 911.79 26.9531C910.398 25.4474 909.702 23.5653 909.702 21.3068C909.702 19.4602 910.22 17.8267 911.257 16.4062C912.308 14.9858 913.736 13.8707 915.54 13.0611C917.358 12.2514 919.417 11.8466 921.719 11.8466C924.957 11.8466 927.5 12.5568 929.346 13.9773C931.207 15.3977 932.528 17.2727 933.309 19.6023Z" fill="black"/>
<path d="M955.708 12.2727V16.5341H938.748V12.2727H955.708ZM943.691 4.43182H948.72V35.625C948.72 37.0455 948.926 38.1108 949.338 38.821C949.764 39.517 950.303 39.9858 950.957 40.2273C951.624 40.4545 952.328 40.5682 953.066 40.5682C953.62 40.5682 954.075 40.5398 954.43 40.483C954.785 40.4119 955.069 40.3551 955.282 40.3125L956.305 44.8295C955.964 44.9574 955.488 45.0852 954.877 45.2131C954.266 45.3551 953.492 45.4261 952.555 45.4261C951.134 45.4261 949.742 45.1207 948.379 44.5099C947.029 43.8991 945.907 42.9688 945.012 41.7188C944.132 40.4688 943.691 38.892 943.691 36.9886V4.43182Z" fill="black"/>
<path d="M963.272 45V12.2727H968.13V17.2159H968.471C969.068 15.5966 970.147 14.2827 971.71 13.2741C973.272 12.2656 975.034 11.7614 976.994 11.7614C977.363 11.7614 977.825 11.7685 978.379 11.7827C978.933 11.7969 979.352 11.8182 979.636 11.8466V16.9602C979.465 16.9176 979.075 16.8537 978.464 16.7685C977.867 16.669 977.235 16.6193 976.568 16.6193C974.977 16.6193 973.556 16.9531 972.306 17.6207C971.071 18.2741 970.09 19.1832 969.366 20.348C968.656 21.4986 968.301 22.8125 968.301 24.2898V45H963.272Z" fill="black"/>
<path d="M1006.22 31.6193V12.2727H1011.25V45H1006.22V39.4602H1005.88C1005.11 41.1222 1003.92 42.5355 1002.3 43.7003C1000.68 44.8509 998.636 45.4261 996.165 45.4261C994.119 45.4261 992.301 44.9787 990.71 44.0838C989.119 43.1747 987.869 41.8111 986.96 39.9929C986.051 38.1605 985.596 35.8523 985.596 33.0682V12.2727H990.625V32.7273C990.625 35.1136 991.292 37.017 992.628 38.4375C993.977 39.858 995.696 40.5682 997.784 40.5682C999.034 40.5682 1000.31 40.2486 1001.6 39.6094C1002.9 38.9702 1004 37.9901 1004.88 36.669C1005.77 35.348 1006.22 33.6648 1006.22 31.6193Z" fill="black"/>
<path d="M1033.76 45.6818C1030.69 45.6818 1028.04 44.9574 1025.83 43.5085C1023.61 42.0597 1021.91 40.0639 1020.72 37.5213C1019.52 34.9787 1018.93 32.0739 1018.93 28.8068C1018.93 25.483 1019.54 22.5497 1020.76 20.0071C1021.99 17.4503 1023.71 15.4545 1025.91 14.0199C1028.13 12.571 1030.72 11.8466 1033.67 11.8466C1035.97 11.8466 1038.04 12.2727 1039.89 13.125C1041.74 13.9773 1043.25 15.1705 1044.43 16.7045C1045.61 18.2386 1046.34 20.0284 1046.62 22.0739H1041.6C1041.21 20.5824 1040.36 19.2614 1039.04 18.1108C1037.73 16.946 1035.97 16.3636 1033.76 16.3636C1031.79 16.3636 1030.08 16.875 1028.6 17.8977C1027.14 18.9062 1025.99 20.3338 1025.17 22.1804C1024.36 24.0128 1023.95 26.1648 1023.95 28.6364C1023.95 31.1648 1024.35 33.3665 1025.15 35.2415C1025.96 37.1165 1027.09 38.5724 1028.56 39.6094C1030.03 40.6463 1031.77 41.1648 1033.76 41.1648C1035.06 41.1648 1036.25 40.9375 1037.31 40.483C1038.38 40.0284 1039.28 39.375 1040.02 38.5227C1040.76 37.6705 1041.28 36.6477 1041.6 35.4545H1046.62C1046.34 37.3864 1045.64 39.1264 1044.52 40.6747C1043.41 42.2088 1041.94 43.4304 1040.1 44.3395C1038.29 45.2344 1036.17 45.6818 1033.76 45.6818Z" fill="black"/>
<path d="M1068.21 12.2727V16.5341H1051.25V12.2727H1068.21ZM1056.19 4.43182H1061.22V35.625C1061.22 37.0455 1061.43 38.1108 1061.84 38.821C1062.26 39.517 1062.8 39.9858 1063.46 40.2273C1064.12 40.4545 1064.83 40.5682 1065.57 40.5682C1066.12 40.5682 1066.57 40.5398 1066.93 40.483C1067.29 40.4119 1067.57 40.3551 1067.78 40.3125L1068.8 44.8295C1068.46 44.9574 1067.99 45.0852 1067.38 45.2131C1066.77 45.3551 1065.99 45.4261 1065.05 45.4261C1063.63 45.4261 1062.24 45.1207 1060.88 44.5099C1059.53 43.8991 1058.41 42.9688 1057.51 41.7188C1056.63 40.4688 1056.19 38.892 1056.19 36.9886V4.43182Z" fill="black"/>
<path d="M1075.77 45V12.2727H1080.8V45H1075.77ZM1078.33 6.81818C1077.35 6.81818 1076.5 6.48438 1075.79 5.81676C1075.1 5.14915 1074.75 4.34659 1074.75 3.40909C1074.75 2.47159 1075.1 1.66903 1075.79 1.00142C1076.5 0.333806 1077.35 0 1078.33 0C1079.31 0 1080.15 0.333806 1080.84 1.00142C1081.55 1.66903 1081.91 2.47159 1081.91 3.40909C1081.91 4.34659 1081.55 5.14915 1080.84 5.81676C1080.15 6.48438 1079.31 6.81818 1078.33 6.81818Z" fill="black"/>
<path d="M1103.31 45.6818C1100.35 45.6818 1097.76 44.9787 1095.53 43.5724C1093.31 42.1662 1091.58 40.1989 1090.33 37.6705C1089.09 35.142 1088.48 32.1875 1088.48 28.8068C1088.48 25.3977 1089.09 22.4219 1090.33 19.8793C1091.58 17.3366 1093.31 15.3622 1095.53 13.956C1097.76 12.5497 1100.35 11.8466 1103.31 11.8466C1106.26 11.8466 1108.85 12.5497 1111.06 13.956C1113.29 15.3622 1115.02 17.3366 1116.26 19.8793C1117.51 22.4219 1118.14 25.3977 1118.14 28.8068C1118.14 32.1875 1117.51 35.142 1116.26 37.6705C1115.02 40.1989 1113.29 42.1662 1111.06 43.5724C1108.85 44.9787 1106.26 45.6818 1103.31 45.6818ZM1103.31 41.1648C1105.55 41.1648 1107.4 40.5895 1108.85 39.4389C1110.29 38.2884 1111.37 36.7756 1112.06 34.9006C1112.76 33.0256 1113.11 30.9943 1113.11 28.8068C1113.11 26.6193 1112.76 24.581 1112.06 22.6918C1111.37 20.8026 1110.29 19.2756 1108.85 18.1108C1107.4 16.946 1105.55 16.3636 1103.31 16.3636C1101.06 16.3636 1099.22 16.946 1097.77 18.1108C1096.32 19.2756 1095.24 20.8026 1094.55 22.6918C1093.85 24.581 1093.5 26.6193 1093.5 28.8068C1093.5 30.9943 1093.85 33.0256 1094.55 34.9006C1095.24 36.7756 1096.32 38.2884 1097.77 39.4389C1099.22 40.5895 1101.06 41.1648 1103.31 41.1648Z" fill="black"/>
<path d="M1130.84 25.3125V45H1125.81V12.2727H1130.67V17.3864H1131.1C1131.86 15.7244 1133.03 14.3892 1134.59 13.3807C1136.15 12.358 1138.17 11.8466 1140.64 11.8466C1142.86 11.8466 1144.8 12.3011 1146.46 13.2102C1148.12 14.1051 1149.41 15.4688 1150.34 17.3011C1151.26 19.1193 1151.72 21.4205 1151.72 24.2045V45H1146.69V24.5455C1146.69 21.9744 1146.02 19.9716 1144.69 18.5369C1143.35 17.0881 1141.52 16.3636 1139.19 16.3636C1137.59 16.3636 1136.15 16.7116 1134.89 17.4077C1133.64 18.1037 1132.65 19.1193 1131.93 20.4545C1131.2 21.7898 1130.84 23.4091 1130.84 25.3125Z" fill="black"/>
<path d="M1177.78 45V12.2727H1182.81V45H1177.78ZM1180.34 6.81818C1179.36 6.81818 1178.52 6.48438 1177.81 5.81676C1177.11 5.14915 1176.76 4.34659 1176.76 3.40909C1176.76 2.47159 1177.11 1.66903 1177.81 1.00142C1178.52 0.333806 1179.36 0 1180.34 0C1181.32 0 1182.16 0.333806 1182.85 1.00142C1183.57 1.66903 1183.92 2.47159 1183.92 3.40909C1183.92 4.34659 1183.57 5.14915 1182.85 5.81676C1182.16 6.48438 1181.32 6.81818 1180.34 6.81818Z" fill="black"/>
<path d="M1197.05 25.3125V45H1192.02V12.2727H1196.88V17.3864H1197.31C1198.07 15.7244 1199.24 14.3892 1200.8 13.3807C1202.36 12.358 1204.38 11.8466 1206.85 11.8466C1209.07 11.8466 1211.01 12.3011 1212.67 13.2102C1214.33 14.1051 1215.62 15.4688 1216.55 17.3011C1217.47 19.1193 1217.93 21.4205 1217.93 24.2045V45H1212.9V24.5455C1212.9 21.9744 1212.24 19.9716 1210.9 18.5369C1209.56 17.0881 1207.73 16.3636 1205.4 16.3636C1203.8 16.3636 1202.36 16.7116 1201.1 17.4077C1199.85 18.1037 1198.86 19.1193 1198.14 20.4545C1197.41 21.7898 1197.05 23.4091 1197.05 25.3125Z" fill="black"/>
<path d="M1239.48 45.6818C1236.75 45.6818 1234.34 44.9929 1232.25 43.6151C1230.17 42.223 1228.53 40.2628 1227.35 37.7344C1226.18 35.1918 1225.59 32.1875 1225.59 28.7216C1225.59 25.2841 1226.18 22.3011 1227.35 19.7727C1228.53 17.2443 1230.17 15.2912 1232.28 13.9134C1234.38 12.5355 1236.81 11.8466 1239.56 11.8466C1241.69 11.8466 1243.38 12.2017 1244.61 12.9119C1245.86 13.608 1246.81 14.4034 1247.47 15.2983C1248.14 16.179 1248.65 16.9034 1249.02 17.4716H1249.45V1.36364H1254.48V45H1249.62V39.9716H1249.02C1248.65 40.5682 1248.13 41.321 1247.45 42.2301C1246.76 43.125 1245.79 43.9276 1244.53 44.6378C1243.26 45.3338 1241.58 45.6818 1239.48 45.6818ZM1240.16 41.1648C1242.18 41.1648 1243.88 40.6392 1245.27 39.5881C1246.67 38.5227 1247.72 37.0526 1248.45 35.1776C1249.17 33.2884 1249.53 31.108 1249.53 28.6364C1249.53 26.1932 1249.18 24.0554 1248.47 22.223C1247.76 20.3764 1246.71 18.9418 1245.32 17.919C1243.92 16.8821 1242.21 16.3636 1240.16 16.3636C1238.03 16.3636 1236.25 16.9105 1234.83 18.0043C1233.43 19.0838 1232.37 20.554 1231.66 22.4148C1230.96 24.2614 1230.61 26.3352 1230.61 28.6364C1230.61 30.9659 1230.97 33.0824 1231.68 34.9858C1232.4 36.875 1233.47 38.3807 1234.88 39.5028C1236.3 40.6108 1238.06 41.1648 1240.16 41.1648Z" fill="black"/>
<path d="M1285.01 31.6193V12.2727H1290.04V45H1285.01V39.4602H1284.67C1283.9 41.1222 1282.71 42.5355 1281.09 43.7003C1279.47 44.8509 1277.43 45.4261 1274.95 45.4261C1272.91 45.4261 1271.09 44.9787 1269.5 44.0838C1267.91 43.1747 1266.66 41.8111 1265.75 39.9929C1264.84 38.1605 1264.39 35.8523 1264.39 33.0682V12.2727H1269.41V32.7273C1269.41 35.1136 1270.08 37.017 1271.42 38.4375C1272.77 39.858 1274.48 40.5682 1276.57 40.5682C1277.82 40.5682 1279.09 40.2486 1280.39 39.6094C1281.69 38.9702 1282.79 37.9901 1283.67 36.669C1284.56 35.348 1285.01 33.6648 1285.01 31.6193Z" fill="black"/>
<path d="M1322.43 19.6023L1317.91 20.8807C1317.63 20.1278 1317.21 19.3963 1316.66 18.6861C1316.12 17.9616 1315.38 17.3651 1314.44 16.8963C1313.5 16.4276 1312.3 16.1932 1310.84 16.1932C1308.84 16.1932 1307.17 16.6548 1305.83 17.5781C1304.51 18.4872 1303.85 19.6449 1303.85 21.0511C1303.85 22.3011 1304.31 23.2884 1305.21 24.0128C1306.12 24.7372 1307.54 25.3409 1309.48 25.8239L1314.33 27.017C1317.26 27.7273 1319.44 28.8139 1320.88 30.277C1322.31 31.7259 1323.03 33.5937 1323.03 35.8807C1323.03 37.7557 1322.49 39.4318 1321.41 40.9091C1320.34 42.3864 1318.85 43.5511 1316.93 44.4034C1315.02 45.2557 1312.79 45.6818 1310.24 45.6818C1306.91 45.6818 1304.14 44.9574 1301.95 43.5085C1299.77 42.0597 1298.38 39.9432 1297.8 37.1591L1302.57 35.9659C1303.03 37.7273 1303.89 39.0483 1305.15 39.929C1306.43 40.8097 1308.1 41.25 1310.16 41.25C1312.5 41.25 1314.36 40.7528 1315.74 39.7585C1317.13 38.75 1317.83 37.5426 1317.83 36.1364C1317.83 35 1317.43 34.0483 1316.64 33.2812C1315.84 32.5 1314.62 31.9176 1312.97 31.5341L1307.52 30.2557C1304.52 29.5455 1302.32 28.4446 1300.91 26.9531C1299.52 25.4474 1298.82 23.5653 1298.82 21.3068C1298.82 19.4602 1299.34 17.8267 1300.38 16.4062C1301.43 14.9858 1302.86 13.8707 1304.66 13.0611C1306.48 12.2514 1308.54 11.8466 1310.84 11.8466C1314.08 11.8466 1316.62 12.5568 1318.47 13.9773C1320.33 15.3977 1321.65 17.2727 1322.43 19.6023Z" fill="black"/>
<path d="M1344.83 12.2727V16.5341H1327.87V12.2727H1344.83ZM1332.81 4.43182H1337.84V35.625C1337.84 37.0455 1338.05 38.1108 1338.46 38.821C1338.88 39.517 1339.42 39.9858 1340.08 40.2273C1340.75 40.4545 1341.45 40.5682 1342.19 40.5682C1342.74 40.5682 1343.2 40.5398 1343.55 40.483C1343.91 40.4119 1344.19 40.3551 1344.4 40.3125L1345.43 44.8295C1345.09 44.9574 1344.61 45.0852 1344 45.2131C1343.39 45.3551 1342.61 45.4261 1341.68 45.4261C1340.26 45.4261 1338.86 45.1207 1337.5 44.5099C1336.15 43.8991 1335.03 42.9688 1334.13 41.7188C1333.25 40.4688 1332.81 38.892 1332.81 36.9886V4.43182Z" fill="black"/>
<path d="M1352.39 45V12.2727H1357.25V17.2159H1357.59C1358.19 15.5966 1359.27 14.2827 1360.83 13.2741C1362.39 12.2656 1364.15 11.7614 1366.11 11.7614C1366.48 11.7614 1366.95 11.7685 1367.5 11.7827C1368.05 11.7969 1368.47 11.8182 1368.76 11.8466V16.9602C1368.59 16.9176 1368.2 16.8537 1367.59 16.7685C1366.99 16.669 1366.36 16.6193 1365.69 16.6193C1364.1 16.6193 1362.68 16.9531 1361.43 17.6207C1360.19 18.2741 1359.21 19.1832 1358.49 20.348C1357.78 21.4986 1357.42 22.8125 1357.42 24.2898V45H1352.39Z" fill="black"/>
<path d="M1378.95 57.2727C1378.1 57.2727 1377.34 57.2017 1376.67 57.0597C1376 56.9318 1375.54 56.804 1375.29 56.6761L1376.57 52.2443C1377.79 52.5568 1378.87 52.6705 1379.8 52.5852C1380.74 52.5 1381.57 52.081 1382.3 51.3281C1383.04 50.5895 1383.71 49.3892 1384.32 47.7273L1385.26 45.1705L1373.16 12.2727H1378.61L1387.65 38.3523H1387.99L1397.02 12.2727H1402.47L1388.58 49.7727C1387.96 51.4631 1387.18 52.8622 1386.26 53.9702C1385.34 55.0923 1384.26 55.9233 1383.04 56.4631C1381.84 57.0028 1380.47 57.2727 1378.95 57.2727Z" fill="black"/>
<path d="M79.8382 85.2727V89.5341H62.1962V85.2727H79.8382ZM67.4803 118V80.7557C67.4803 78.8807 67.9206 77.3182 68.8013 76.0682C69.682 74.8182 70.8255 73.8807 72.2317 73.2557C73.638 72.6307 75.1223 72.3182 76.6848 72.3182C77.9206 72.3182 78.9292 72.4176 79.7104 72.6165C80.4917 72.8153 81.074 73 81.4576 73.1705L80.0087 77.517C79.753 77.4318 79.3979 77.3253 78.9434 77.1974C78.503 77.0696 77.9206 77.0057 77.1962 77.0057C75.5343 77.0057 74.334 77.4247 73.5954 78.2628C72.8709 79.1009 72.5087 80.3295 72.5087 81.9489V118H67.4803Z" fill="black"/>
<path d="M98.8333 118.682C95.8787 118.682 93.2864 117.979 91.0563 116.572C88.8404 115.166 87.1074 113.199 85.8574 110.67C84.6216 108.142 84.0037 105.187 84.0037 101.807C84.0037 98.3977 84.6216 95.4219 85.8574 92.8793C87.1074 90.3366 88.8404 88.3622 91.0563 86.956C93.2864 85.5497 95.8787 84.8466 98.8333 84.8466C101.788 84.8466 104.373 85.5497 106.589 86.956C108.819 88.3622 110.552 90.3366 111.788 92.8793C113.038 95.4219 113.663 98.3977 113.663 101.807C113.663 105.187 113.038 108.142 111.788 110.67C110.552 113.199 108.819 115.166 106.589 116.572C104.373 117.979 101.788 118.682 98.8333 118.682ZM98.8333 114.165C101.078 114.165 102.924 113.589 104.373 112.439C105.822 111.288 106.894 109.776 107.59 107.901C108.286 106.026 108.634 103.994 108.634 101.807C108.634 99.6193 108.286 97.581 107.59 95.6918C106.894 93.8026 105.822 92.2756 104.373 91.1108C102.924 89.946 101.078 89.3636 98.8333 89.3636C96.589 89.3636 94.7424 89.946 93.2935 91.1108C91.8446 92.2756 90.7722 93.8026 90.0762 95.6918C89.3801 97.581 89.0321 99.6193 89.0321 101.807C89.0321 103.994 89.3801 106.026 90.0762 107.901C90.7722 109.776 91.8446 111.288 93.2935 112.439C94.7424 113.589 96.589 114.165 98.8333 114.165Z" fill="black"/>
<path d="M121.339 118V85.2727H126.197V90.2159H126.537C127.134 88.5966 128.214 87.2827 129.776 86.2741C131.339 85.2656 133.1 84.7614 135.06 84.7614C135.43 84.7614 135.891 84.7685 136.445 84.7827C136.999 84.7969 137.418 84.8182 137.702 84.8466V89.9602C137.532 89.9176 137.141 89.8537 136.53 89.7685C135.934 89.669 135.302 89.6193 134.634 89.6193C133.043 89.6193 131.623 89.9531 130.373 90.6207C129.137 91.2741 128.157 92.1832 127.432 93.348C126.722 94.4986 126.367 95.8125 126.367 97.2898V118H121.339Z" fill="black"/>
<path d="M173.833 118.682C170.765 118.682 168.123 117.957 165.907 116.509C163.691 115.06 161.987 113.064 160.794 110.521C159.6 107.979 159.004 105.074 159.004 101.807C159.004 98.483 159.615 95.5497 160.836 93.0071C162.072 90.4503 163.791 88.4545 165.992 87.0199C168.208 85.571 170.794 84.8466 173.748 84.8466C176.049 84.8466 178.123 85.2727 179.97 86.125C181.816 86.9773 183.329 88.1705 184.508 89.7045C185.687 91.2386 186.418 93.0284 186.703 95.0739H181.674C181.291 93.5824 180.438 92.2614 179.117 91.1108C177.811 89.946 176.049 89.3636 173.833 89.3636C171.873 89.3636 170.154 89.875 168.677 90.8977C167.214 91.9063 166.07 93.3338 165.247 95.1804C164.437 97.0128 164.032 99.1648 164.032 101.636C164.032 104.165 164.43 106.366 165.225 108.241C166.035 110.116 167.171 111.572 168.634 112.609C170.112 113.646 171.845 114.165 173.833 114.165C175.14 114.165 176.326 113.938 177.392 113.483C178.457 113.028 179.359 112.375 180.097 111.523C180.836 110.67 181.362 109.648 181.674 108.455H186.703C186.418 110.386 185.715 112.126 184.593 113.675C183.485 115.209 182.015 116.43 180.183 117.339C178.365 118.234 176.248 118.682 173.833 118.682Z" fill="black"/>
<path d="M207.349 118.682C204.394 118.682 201.802 117.979 199.572 116.572C197.356 115.166 195.623 113.199 194.373 110.67C193.137 108.142 192.519 105.187 192.519 101.807C192.519 98.3977 193.137 95.4219 194.373 92.8793C195.623 90.3366 197.356 88.3622 199.572 86.956C201.802 85.5497 204.394 84.8466 207.349 84.8466C210.303 84.8466 212.889 85.5497 215.105 86.956C217.335 88.3622 219.068 90.3366 220.303 92.8793C221.553 95.4219 222.178 98.3977 222.178 101.807C222.178 105.187 221.553 108.142 220.303 110.67C219.068 113.199 217.335 115.166 215.105 116.572C212.889 117.979 210.303 118.682 207.349 118.682ZM207.349 114.165C209.593 114.165 211.44 113.589 212.889 112.439C214.338 111.288 215.41 109.776 216.106 107.901C216.802 106.026 217.15 103.994 217.15 101.807C217.15 99.6193 216.802 97.581 216.106 95.6918C215.41 93.8026 214.338 92.2756 212.889 91.1108C211.44 89.946 209.593 89.3636 207.349 89.3636C205.105 89.3636 203.258 89.946 201.809 91.1108C200.36 92.2756 199.288 93.8026 198.592 95.6918C197.896 97.581 197.548 99.6193 197.548 101.807C197.548 103.994 197.896 106.026 198.592 107.901C199.288 109.776 200.36 111.288 201.809 112.439C203.258 113.589 205.105 114.165 207.349 114.165Z" fill="black"/>
<path d="M234.883 98.3125V118H229.854V85.2727H234.712V90.3864H235.138C235.905 88.7244 237.07 87.3892 238.633 86.3807C240.195 85.358 242.212 84.8466 244.684 84.8466C246.9 84.8466 248.839 85.3011 250.501 86.2102C252.162 87.1051 253.455 88.4687 254.378 90.3011C255.302 92.1193 255.763 94.4205 255.763 97.2045V118H250.735V97.5455C250.735 94.9744 250.067 92.9716 248.732 91.5369C247.397 90.0881 245.564 89.3636 243.235 89.3636C241.63 89.3636 240.195 89.7116 238.931 90.4077C237.681 91.1037 236.694 92.1193 235.969 93.4545C235.245 94.7898 234.883 96.4091 234.883 98.3125Z" fill="black"/>
<path d="M288.134 92.6023L283.617 93.8807C283.333 93.1278 282.914 92.3963 282.36 91.6861C281.82 90.9616 281.081 90.3651 280.144 89.8963C279.206 89.4276 278.006 89.1932 276.543 89.1932C274.54 89.1932 272.871 89.6548 271.536 90.5781C270.215 91.4872 269.554 92.6449 269.554 94.0511C269.554 95.3011 270.009 96.2884 270.918 97.0128C271.827 97.7372 273.247 98.3409 275.179 98.8239L280.037 100.017C282.963 100.727 285.144 101.814 286.578 103.277C288.013 104.726 288.73 106.594 288.73 108.881C288.73 110.756 288.191 112.432 287.111 113.909C286.046 115.386 284.554 116.551 282.637 117.403C280.719 118.256 278.489 118.682 275.946 118.682C272.608 118.682 269.845 117.957 267.658 116.509C265.47 115.06 264.085 112.943 263.503 110.159L268.276 108.966C268.73 110.727 269.59 112.048 270.854 112.929C272.132 113.81 273.801 114.25 275.861 114.25C278.205 114.25 280.066 113.753 281.443 112.759C282.835 111.75 283.531 110.543 283.531 109.136C283.531 108 283.134 107.048 282.338 106.281C281.543 105.5 280.321 104.918 278.673 104.534L273.219 103.256C270.222 102.545 268.02 101.445 266.614 99.9531C265.222 98.4474 264.526 96.5653 264.526 94.3068C264.526 92.4602 265.044 90.8267 266.081 89.4062C267.132 87.9858 268.56 86.8707 270.364 86.0611C272.182 85.2514 274.242 84.8466 276.543 84.8466C279.781 84.8466 282.324 85.5568 284.171 86.9773C286.031 88.3977 287.352 90.2727 288.134 92.6023Z" fill="black"/>
<path d="M310.533 85.2727V89.5341H293.572V85.2727H310.533ZM298.515 77.4318H303.544V108.625C303.544 110.045 303.75 111.111 304.162 111.821C304.588 112.517 305.128 112.986 305.781 113.227C306.449 113.455 307.152 113.568 307.89 113.568C308.444 113.568 308.899 113.54 309.254 113.483C309.609 113.412 309.893 113.355 310.106 113.312L311.129 117.83C310.788 117.957 310.312 118.085 309.702 118.213C309.091 118.355 308.317 118.426 307.379 118.426C305.959 118.426 304.567 118.121 303.203 117.51C301.854 116.899 300.731 115.969 299.836 114.719C298.956 113.469 298.515 111.892 298.515 109.989V77.4318Z" fill="black"/>
<path d="M318.096 118V85.2727H322.954V90.2159H323.295C323.892 88.5966 324.971 87.2827 326.534 86.2741C328.096 85.2656 329.858 84.7614 331.818 84.7614C332.187 84.7614 332.649 84.7685 333.203 84.7827C333.757 84.7969 334.176 84.8182 334.46 84.8466V89.9602C334.29 89.9176 333.899 89.8537 333.288 89.7685C332.692 89.669 332.059 89.6193 331.392 89.6193C329.801 89.6193 328.38 89.9531 327.13 90.6207C325.895 91.2741 324.915 92.1832 324.19 93.348C323.48 94.4986 323.125 95.8125 323.125 97.2898V118H318.096Z" fill="black"/>
<path d="M361.046 104.619V85.2727H366.074V118H361.046V112.46H360.705C359.938 114.122 358.745 115.536 357.125 116.7C355.506 117.851 353.46 118.426 350.989 118.426C348.943 118.426 347.125 117.979 345.534 117.084C343.943 116.175 342.693 114.811 341.784 112.993C340.875 111.161 340.421 108.852 340.421 106.068V85.2727H345.449V105.727C345.449 108.114 346.117 110.017 347.452 111.438C348.801 112.858 350.52 113.568 352.608 113.568C353.858 113.568 355.129 113.249 356.422 112.609C357.729 111.97 358.823 110.99 359.703 109.669C360.598 108.348 361.046 106.665 361.046 104.619Z" fill="black"/>
<path d="M388.579 118.682C385.511 118.682 382.869 117.957 380.653 116.509C378.437 115.06 376.733 113.064 375.54 110.521C374.346 107.979 373.75 105.074 373.75 101.807C373.75 98.483 374.361 95.5497 375.582 93.0071C376.818 90.4503 378.537 88.4545 380.738 87.0199C382.954 85.571 385.54 84.8466 388.494 84.8466C390.795 84.8466 392.869 85.2727 394.716 86.125C396.562 86.9773 398.075 88.1705 399.254 89.7045C400.433 91.2386 401.165 93.0284 401.449 95.0739H396.42C396.037 93.5824 395.184 92.2614 393.863 91.1108C392.557 89.946 390.795 89.3636 388.579 89.3636C386.619 89.3636 384.9 89.875 383.423 90.8977C381.96 91.9063 380.817 93.3338 379.993 95.1804C379.183 97.0128 378.778 99.1648 378.778 101.636C378.778 104.165 379.176 106.366 379.971 108.241C380.781 110.116 381.917 111.572 383.38 112.609C384.858 113.646 386.591 114.165 388.579 114.165C389.886 114.165 391.072 113.938 392.138 113.483C393.203 113.028 394.105 112.375 394.844 111.523C395.582 110.67 396.108 109.648 396.42 108.455H401.449C401.165 110.386 400.461 112.126 399.339 113.675C398.231 115.209 396.761 116.43 394.929 117.339C393.111 118.234 390.994 118.682 388.579 118.682Z" fill="black"/>
<path d="M423.033 85.2727V89.5341H406.072V85.2727H423.033ZM411.015 77.4318H416.044V108.625C416.044 110.045 416.25 111.111 416.662 111.821C417.088 112.517 417.628 112.986 418.281 113.227C418.949 113.455 419.652 113.568 420.39 113.568C420.944 113.568 421.399 113.54 421.754 113.483C422.109 113.412 422.393 113.355 422.606 113.312L423.629 117.83C423.288 117.957 422.812 118.085 422.202 118.213C421.591 118.355 420.817 118.426 419.879 118.426C418.459 118.426 417.067 118.121 415.703 117.51C414.354 116.899 413.231 115.969 412.336 114.719C411.456 113.469 411.015 111.892 411.015 109.989V77.4318Z" fill="black"/>
<path d="M430.596 118V85.2727H435.625V118H430.596ZM433.153 79.8182C432.173 79.8182 431.328 79.4844 430.618 78.8168C429.922 78.1491 429.574 77.3466 429.574 76.4091C429.574 75.4716 429.922 74.669 430.618 74.0014C431.328 73.3338 432.173 73 433.153 73C434.133 73 434.971 73.3338 435.667 74.0014C436.378 74.669 436.733 75.4716 436.733 76.4091C436.733 77.3466 436.378 78.1491 435.667 78.8168C434.971 79.4844 434.133 79.8182 433.153 79.8182Z" fill="black"/>
<path d="M458.13 118.682C455.176 118.682 452.583 117.979 450.353 116.572C448.137 115.166 446.404 113.199 445.154 110.67C443.919 108.142 443.301 105.187 443.301 101.807C443.301 98.3977 443.919 95.4219 445.154 92.8793C446.404 90.3366 448.137 88.3622 450.353 86.956C452.583 85.5497 455.176 84.8466 458.13 84.8466C461.085 84.8466 463.67 85.5497 465.886 86.956C468.116 88.3622 469.849 90.3366 471.085 92.8793C472.335 95.4219 472.96 98.3977 472.96 101.807C472.96 105.187 472.335 108.142 471.085 110.67C469.849 113.199 468.116 115.166 465.886 116.572C463.67 117.979 461.085 118.682 458.13 118.682ZM458.13 114.165C460.374 114.165 462.221 113.589 463.67 112.439C465.119 111.288 466.191 109.776 466.887 107.901C467.583 106.026 467.931 103.994 467.931 101.807C467.931 99.6193 467.583 97.581 466.887 95.6918C466.191 93.8026 465.119 92.2756 463.67 91.1108C462.221 89.946 460.374 89.3636 458.13 89.3636C455.886 89.3636 454.039 89.946 452.59 91.1108C451.142 92.2756 450.069 93.8026 449.373 95.6918C448.677 97.581 448.329 99.6193 448.329 101.807C448.329 103.994 448.677 106.026 449.373 107.901C450.069 109.776 451.142 111.288 452.59 112.439C454.039 113.589 455.886 114.165 458.13 114.165Z" fill="black"/>
<path d="M485.664 98.3125V118H480.635V85.2727H485.493V90.3864H485.92C486.687 88.7244 487.851 87.3892 489.414 86.3807C490.976 85.358 492.993 84.8466 495.465 84.8466C497.681 84.8466 499.62 85.3011 501.282 86.2102C502.944 87.1051 504.236 88.4687 505.16 90.3011C506.083 92.1193 506.545 94.4205 506.545 97.2045V118H501.516V97.5455C501.516 94.9744 500.849 92.9716 499.513 91.5369C498.178 90.0881 496.346 89.3636 494.016 89.3636C492.411 89.3636 490.976 89.7116 489.712 90.4077C488.462 91.1037 487.475 92.1193 486.751 93.4545C486.026 94.7898 485.664 96.4091 485.664 98.3125Z" fill="black"/>
<path d="M542.239 118.767C540.165 118.767 538.283 118.376 536.592 117.595C534.902 116.8 533.56 115.656 532.566 114.165C531.571 112.659 531.074 110.841 531.074 108.71C531.074 106.835 531.443 105.315 532.182 104.151C532.921 102.972 533.908 102.048 535.144 101.381C536.379 100.713 537.743 100.216 539.235 99.8892C540.74 99.5483 542.253 99.2784 543.773 99.0795C545.762 98.8239 547.374 98.6321 548.61 98.5043C549.86 98.3622 550.769 98.1278 551.337 97.8011C551.919 97.4744 552.21 96.9062 552.21 96.0966V95.9261C552.21 93.8239 551.635 92.1903 550.485 91.0256C549.348 89.8608 547.622 89.2784 545.307 89.2784C542.906 89.2784 541.024 89.804 539.661 90.8551C538.297 91.9062 537.338 93.0284 536.784 94.2216L532.012 92.517C532.864 90.5284 534 88.9801 535.421 87.8722C536.855 86.75 538.418 85.9688 540.108 85.5284C541.813 85.0739 543.489 84.8466 545.137 84.8466C546.188 84.8466 547.395 84.9744 548.759 85.2301C550.137 85.4716 551.465 85.9759 552.743 86.7429C554.036 87.5099 555.108 88.6676 555.96 90.2159C556.813 91.7642 557.239 93.8381 557.239 96.4375V118H552.21V113.568H551.955C551.614 114.278 551.046 115.038 550.25 115.848C549.455 116.658 548.396 117.347 547.075 117.915C545.754 118.483 544.142 118.767 542.239 118.767ZM543.006 114.25C544.995 114.25 546.671 113.859 548.034 113.078C549.412 112.297 550.449 111.288 551.145 110.053C551.855 108.817 552.21 107.517 552.21 106.153V101.551C551.997 101.807 551.529 102.041 550.804 102.254C550.094 102.453 549.27 102.631 548.333 102.787C547.409 102.929 546.507 103.057 545.627 103.17C544.76 103.27 544.057 103.355 543.517 103.426C542.21 103.597 540.989 103.874 539.852 104.257C538.73 104.626 537.821 105.187 537.125 105.94C536.443 106.679 536.102 107.688 536.102 108.966C536.102 110.713 536.749 112.034 538.041 112.929C539.348 113.81 541.003 114.25 543.006 114.25Z" fill="black"/>
<path d="M571.445 98.3125V118H566.417V85.2727H571.275V90.3864H571.701C572.468 88.7244 573.633 87.3892 575.195 86.3807C576.758 85.358 578.775 84.8466 581.246 84.8466C583.462 84.8466 585.401 85.3011 587.063 86.2102C588.725 87.1051 590.018 88.4687 590.941 90.3011C591.864 92.1193 592.326 94.4205 592.326 97.2045V118H587.297V97.5455C587.297 94.9744 586.63 92.9716 585.295 91.5369C583.959 90.0881 582.127 89.3636 579.797 89.3636C578.192 89.3636 576.758 89.7116 575.493 90.4077C574.243 91.1037 573.256 92.1193 572.532 93.4545C571.807 94.7898 571.445 96.4091 571.445 98.3125Z" fill="black"/>
<path d="M613.872 118.682C611.145 118.682 608.737 117.993 606.649 116.615C604.561 115.223 602.928 113.263 601.749 110.734C600.57 108.192 599.98 105.187 599.98 101.722C599.98 98.2841 600.57 95.3011 601.749 92.7727C602.928 90.2443 604.568 88.2912 606.671 86.9134C608.773 85.5355 611.202 84.8466 613.958 84.8466C616.088 84.8466 617.771 85.2017 619.007 85.9119C620.257 86.608 621.209 87.4034 621.862 88.2983C622.53 89.179 623.048 89.9034 623.418 90.4716H623.844V74.3636H628.872V118H624.014V112.972H623.418C623.048 113.568 622.523 114.321 621.841 115.23C621.159 116.125 620.186 116.928 618.922 117.638C617.658 118.334 615.975 118.682 613.872 118.682ZM614.554 114.165C616.571 114.165 618.276 113.639 619.668 112.588C621.06 111.523 622.118 110.053 622.842 108.178C623.567 106.288 623.929 104.108 623.929 101.636C623.929 99.1932 623.574 97.0554 622.864 95.223C622.154 93.3764 621.102 91.9418 619.71 90.919C618.318 89.8821 616.6 89.3636 614.554 89.3636C612.423 89.3636 610.648 89.9105 609.227 91.0043C607.821 92.0838 606.763 93.554 606.053 95.4148C605.357 97.2614 605.009 99.3352 605.009 101.636C605.009 103.966 605.364 106.082 606.074 107.986C606.798 109.875 607.864 111.381 609.27 112.503C610.691 113.611 612.452 114.165 614.554 114.165Z" fill="black"/>
<path d="M660.683 98.3125V118H655.655V85.2727H660.513V90.3864H660.939C661.706 88.7244 662.871 87.3892 664.433 86.3807C665.996 85.358 668.013 84.8466 670.485 84.8466C672.7 84.8466 674.639 85.3011 676.301 86.2102C677.963 87.1051 679.256 88.4687 680.179 90.3011C681.102 92.1193 681.564 94.4205 681.564 97.2045V118H676.536V97.5455C676.536 94.9744 675.868 92.9716 674.533 91.5369C673.198 90.0881 671.365 89.3636 669.036 89.3636C667.431 89.3636 665.996 89.7116 664.732 90.4077C663.482 91.1037 662.494 92.1193 661.77 93.4545C661.046 94.7898 660.683 96.4091 660.683 98.3125Z" fill="black"/>
<path d="M704.048 118.682C701.094 118.682 698.501 117.979 696.271 116.572C694.055 115.166 692.322 113.199 691.072 110.67C689.837 108.142 689.219 105.187 689.219 101.807C689.219 98.3977 689.837 95.4219 691.072 92.8793C692.322 90.3366 694.055 88.3622 696.271 86.956C698.501 85.5497 701.094 84.8466 704.048 84.8466C707.003 84.8466 709.588 85.5497 711.804 86.956C714.034 88.3622 715.767 90.3366 717.003 92.8793C718.253 95.4219 718.878 98.3977 718.878 101.807C718.878 105.187 718.253 108.142 717.003 110.67C715.767 113.199 714.034 115.166 711.804 116.572C709.588 117.979 707.003 118.682 704.048 118.682ZM704.048 114.165C706.292 114.165 708.139 113.589 709.588 112.439C711.037 111.288 712.109 109.776 712.805 107.901C713.501 106.026 713.849 103.994 713.849 101.807C713.849 99.6193 713.501 97.581 712.805 95.6918C712.109 93.8026 711.037 92.2756 709.588 91.1108C708.139 89.946 706.292 89.3636 704.048 89.3636C701.804 89.3636 699.957 89.946 698.508 91.1108C697.059 92.2756 695.987 93.8026 695.291 95.6918C694.595 97.581 694.247 99.6193 694.247 101.807C694.247 103.994 694.595 106.026 695.291 107.901C695.987 109.776 697.059 111.288 698.508 112.439C699.957 113.589 701.804 114.165 704.048 114.165Z" fill="black"/>
<path d="M731.582 98.3125V118H726.553V85.2727H731.411V90.3864H731.838C732.605 88.7244 733.769 87.3892 735.332 86.3807C736.894 85.358 738.911 84.8466 741.383 84.8466C743.599 84.8466 745.538 85.3011 747.2 86.2102C748.862 87.1051 750.154 88.4687 751.078 90.3011C752.001 92.1193 752.463 94.4205 752.463 97.2045V118H747.434V97.5455C747.434 94.9744 746.767 92.9716 745.431 91.5369C744.096 90.0881 742.264 89.3636 739.934 89.3636C738.329 89.3636 736.894 89.7116 735.63 90.4077C734.38 91.1037 733.393 92.1193 732.668 93.4545C731.944 94.7898 731.582 96.4091 731.582 98.3125Z" fill="black"/>
<path d="M780.401 96.9489V101.636H761.31V96.9489H780.401Z" fill="black"/>
<path d="M802.544 118.682C799.476 118.682 796.834 117.957 794.618 116.509C792.402 115.06 790.698 113.064 789.504 110.521C788.311 107.979 787.715 105.074 787.715 101.807C787.715 98.483 788.325 95.5497 789.547 93.0071C790.783 90.4503 792.502 88.4545 794.703 87.0199C796.919 85.571 799.504 84.8466 802.459 84.8466C804.76 84.8466 806.834 85.2727 808.681 86.125C810.527 86.9773 812.04 88.1705 813.219 89.7045C814.398 91.2386 815.129 93.0284 815.414 95.0739H810.385C810.002 93.5824 809.149 92.2614 807.828 91.1108C806.521 89.946 804.76 89.3636 802.544 89.3636C800.584 89.3636 798.865 89.875 797.388 90.8977C795.925 91.9063 794.781 93.3338 793.958 95.1804C793.148 97.0128 792.743 99.1648 792.743 101.636C792.743 104.165 793.141 106.366 793.936 108.241C794.746 110.116 795.882 111.572 797.345 112.609C798.823 113.646 800.556 114.165 802.544 114.165C803.851 114.165 805.037 113.938 806.102 113.483C807.168 113.028 808.07 112.375 808.808 111.523C809.547 110.67 810.073 109.648 810.385 108.455H815.414C815.129 110.386 814.426 112.126 813.304 113.675C812.196 115.209 810.726 116.43 808.894 117.339C807.075 118.234 804.959 118.682 802.544 118.682Z" fill="black"/>
<path d="M836.06 118.682C833.105 118.682 830.513 117.979 828.283 116.572C826.067 115.166 824.334 113.199 823.084 110.67C821.848 108.142 821.23 105.187 821.23 101.807C821.23 98.3977 821.848 95.4219 823.084 92.8793C824.334 90.3366 826.067 88.3622 828.283 86.956C830.513 85.5497 833.105 84.8466 836.06 84.8466C839.014 84.8466 841.6 85.5497 843.816 86.956C846.046 88.3622 847.779 90.3366 849.014 92.8793C850.264 95.4219 850.889 98.3977 850.889 101.807C850.889 105.187 850.264 108.142 849.014 110.67C847.779 113.199 846.046 115.166 843.816 116.572C841.6 117.979 839.014 118.682 836.06 118.682ZM836.06 114.165C838.304 114.165 840.151 113.589 841.6 112.439C843.049 111.288 844.121 109.776 844.817 107.901C845.513 106.026 845.861 103.994 845.861 101.807C845.861 99.6193 845.513 97.581 844.817 95.6918C844.121 93.8026 843.049 92.2756 841.6 91.1108C840.151 89.946 838.304 89.3636 836.06 89.3636C833.816 89.3636 831.969 89.946 830.52 91.1108C829.071 92.2756 827.999 93.8026 827.303 95.6918C826.607 97.581 826.259 99.6193 826.259 101.807C826.259 103.994 826.607 106.026 827.303 107.901C827.999 109.776 829.071 111.288 830.52 112.439C831.969 113.589 833.816 114.165 836.06 114.165Z" fill="black"/>
<path d="M863.594 98.3125V118H858.565V85.2727H863.423V90.3864H863.849C864.616 88.7244 865.781 87.3892 867.344 86.3807C868.906 85.358 870.923 84.8466 873.395 84.8466C875.611 84.8466 877.55 85.3011 879.211 86.2102C880.873 87.1051 882.166 88.4687 883.089 90.3011C884.013 92.1193 884.474 94.4205 884.474 97.2045V118H879.446V97.5455C879.446 94.9744 878.778 92.9716 877.443 91.5369C876.108 90.0881 874.275 89.3636 871.946 89.3636C870.341 89.3636 868.906 89.7116 867.642 90.4077C866.392 91.1037 865.405 92.1193 864.68 93.4545C863.956 94.7898 863.594 96.4091 863.594 98.3125Z" fill="black"/>
<path d="M916.845 92.6023L912.328 93.8807C912.044 93.1278 911.624 92.3963 911.07 91.6861C910.531 90.9616 909.792 90.3651 908.855 89.8963C907.917 89.4276 906.717 89.1932 905.254 89.1932C903.251 89.1932 901.582 89.6548 900.247 90.5781C898.926 91.4872 898.265 92.6449 898.265 94.0511C898.265 95.3011 898.72 96.2884 899.629 97.0128C900.538 97.7372 901.958 98.3409 903.89 98.8239L908.748 100.017C911.674 100.727 913.855 101.814 915.289 103.277C916.724 104.726 917.441 106.594 917.441 108.881C917.441 110.756 916.901 112.432 915.822 113.909C914.757 115.386 913.265 116.551 911.348 117.403C909.43 118.256 907.2 118.682 904.657 118.682C901.319 118.682 898.556 117.957 896.369 116.509C894.181 115.06 892.796 112.943 892.214 110.159L896.987 108.966C897.441 110.727 898.301 112.048 899.565 112.929C900.843 113.81 902.512 114.25 904.572 114.25C906.916 114.25 908.776 113.753 910.154 112.759C911.546 111.75 912.242 110.543 912.242 109.136C912.242 108 911.845 107.048 911.049 106.281C910.254 105.5 909.032 104.918 907.384 104.534L901.93 103.256C898.933 102.545 896.731 101.445 895.325 99.9531C893.933 98.4474 893.237 96.5653 893.237 94.3068C893.237 92.4602 893.755 90.8267 894.792 89.4062C895.843 87.9858 897.271 86.8707 899.075 86.0611C900.893 85.2514 902.953 84.8466 905.254 84.8466C908.492 84.8466 911.035 85.5568 912.882 86.9773C914.742 88.3977 916.063 90.2727 916.845 92.6023Z" fill="black"/>
<path d="M939.243 85.2727V89.5341H922.283V85.2727H939.243ZM927.226 77.4318H932.255V108.625C932.255 110.045 932.461 111.111 932.873 111.821C933.299 112.517 933.839 112.986 934.492 113.227C935.16 113.455 935.863 113.568 936.601 113.568C937.155 113.568 937.61 113.54 937.965 113.483C938.32 113.412 938.604 113.355 938.817 113.312L939.84 117.83C939.499 117.957 939.023 118.085 938.412 118.213C937.802 118.355 937.027 118.426 936.09 118.426C934.67 118.426 933.278 118.121 931.914 117.51C930.564 116.899 929.442 115.969 928.547 114.719C927.667 113.469 927.226 111.892 927.226 109.989V77.4318Z" fill="black"/>
<path d="M946.807 118V85.2727H951.665V90.2159H952.006C952.603 88.5966 953.682 87.2827 955.245 86.2741C956.807 85.2656 958.569 84.7614 960.529 84.7614C960.898 84.7614 961.36 84.7685 961.914 84.7827C962.468 84.7969 962.887 84.8182 963.171 84.8466V89.9602C963.001 89.9176 962.61 89.8537 961.999 89.7685C961.403 89.669 960.77 89.6193 960.103 89.6193C958.512 89.6193 957.091 89.9531 955.841 90.6207C954.606 91.2741 953.626 92.1832 952.901 93.348C952.191 94.4986 951.836 95.8125 951.836 97.2898V118H946.807Z" fill="black"/>
<path d="M989.757 104.619V85.2727H994.785V118H989.757V112.46H989.416C988.649 114.122 987.455 115.536 985.836 116.7C984.217 117.851 982.171 118.426 979.7 118.426C977.654 118.426 975.836 117.979 974.245 117.084C972.654 116.175 971.404 114.811 970.495 112.993C969.586 111.161 969.132 108.852 969.132 106.068V85.2727H974.16V105.727C974.16 108.114 974.828 110.017 976.163 111.438C977.512 112.858 979.231 113.568 981.319 113.568C982.569 113.568 983.84 113.249 985.133 112.609C986.44 111.97 987.534 110.99 988.414 109.669C989.309 108.348 989.757 106.665 989.757 104.619Z" fill="black"/>
<path d="M1017.29 118.682C1014.22 118.682 1011.58 117.957 1009.36 116.509C1007.15 115.06 1005.44 113.064 1004.25 110.521C1003.06 107.979 1002.46 105.074 1002.46 101.807C1002.46 98.483 1003.07 95.5497 1004.29 93.0071C1005.53 90.4503 1007.25 88.4545 1009.45 87.0199C1011.67 85.571 1014.25 84.8466 1017.21 84.8466C1019.51 84.8466 1021.58 85.2727 1023.43 86.125C1025.27 86.9773 1026.79 88.1705 1027.97 89.7045C1029.14 91.2386 1029.88 93.0284 1030.16 95.0739H1025.13C1024.75 93.5824 1023.9 92.2614 1022.57 91.1108C1021.27 89.946 1019.51 89.3636 1017.29 89.3636C1015.33 89.3636 1013.61 89.875 1012.13 90.8977C1010.67 91.9063 1009.53 93.3338 1008.7 95.1804C1007.89 97.0128 1007.49 99.1648 1007.49 101.636C1007.49 104.165 1007.89 106.366 1008.68 108.241C1009.49 110.116 1010.63 111.572 1012.09 112.609C1013.57 113.646 1015.3 114.165 1017.29 114.165C1018.6 114.165 1019.78 113.938 1020.85 113.483C1021.91 113.028 1022.82 112.375 1023.55 111.523C1024.29 110.67 1024.82 109.648 1025.13 108.455H1030.16C1029.88 110.386 1029.17 112.126 1028.05 113.675C1026.94 115.209 1025.47 116.43 1023.64 117.339C1021.82 118.234 1019.71 118.682 1017.29 118.682Z" fill="black"/>
<path d="M1051.74 85.2727V89.5341H1034.78V85.2727H1051.74ZM1039.73 77.4318H1044.75V108.625C1044.75 110.045 1044.96 111.111 1045.37 111.821C1045.8 112.517 1046.34 112.986 1046.99 113.227C1047.66 113.455 1048.36 113.568 1049.1 113.568C1049.66 113.568 1050.11 113.54 1050.47 113.483C1050.82 113.412 1051.1 113.355 1051.32 113.312L1052.34 117.83C1052 117.957 1051.52 118.085 1050.91 118.213C1050.3 118.355 1049.53 118.426 1048.59 118.426C1047.17 118.426 1045.78 118.121 1044.41 117.51C1043.06 116.899 1041.94 115.969 1041.05 114.719C1040.17 113.469 1039.73 111.892 1039.73 109.989V77.4318Z" fill="black"/>
<path d="M1059.31 118V85.2727H1064.34V118H1059.31ZM1061.86 79.8182C1060.88 79.8182 1060.04 79.4844 1059.33 78.8168C1058.63 78.1491 1058.28 77.3466 1058.28 76.4091C1058.28 75.4716 1058.63 74.669 1059.33 74.0014C1060.04 73.3338 1060.88 73 1061.86 73C1062.84 73 1063.68 73.3338 1064.38 74.0014C1065.09 74.669 1065.44 75.4716 1065.44 76.4091C1065.44 77.3466 1065.09 78.1491 1064.38 78.8168C1063.68 79.4844 1062.84 79.8182 1061.86 79.8182Z" fill="black"/>
<path d="M1086.84 118.682C1083.89 118.682 1081.29 117.979 1079.06 116.572C1076.85 115.166 1075.12 113.199 1073.87 110.67C1072.63 108.142 1072.01 105.187 1072.01 101.807C1072.01 98.3977 1072.63 95.4219 1073.87 92.8793C1075.12 90.3366 1076.85 88.3622 1079.06 86.956C1081.29 85.5497 1083.89 84.8466 1086.84 84.8466C1089.8 84.8466 1092.38 85.5497 1094.6 86.956C1096.83 88.3622 1098.56 90.3366 1099.8 92.8793C1101.05 95.4219 1101.67 98.3977 1101.67 101.807C1101.67 105.187 1101.05 108.142 1099.8 110.67C1098.56 113.199 1096.83 115.166 1094.6 116.572C1092.38 117.979 1089.8 118.682 1086.84 118.682ZM1086.84 114.165C1089.09 114.165 1090.93 113.589 1092.38 112.439C1093.83 111.288 1094.9 109.776 1095.6 107.901C1096.29 106.026 1096.64 103.994 1096.64 101.807C1096.64 99.6193 1096.29 97.581 1095.6 95.6918C1094.9 93.8026 1093.83 92.2756 1092.38 91.1108C1090.93 89.946 1089.09 89.3636 1086.84 89.3636C1084.6 89.3636 1082.75 89.946 1081.3 91.1108C1079.85 92.2756 1078.78 93.8026 1078.08 95.6918C1077.39 97.581 1077.04 99.6193 1077.04 101.807C1077.04 103.994 1077.39 106.026 1078.08 107.901C1078.78 109.776 1079.85 111.288 1081.3 112.439C1082.75 113.589 1084.6 114.165 1086.84 114.165Z" fill="black"/>
<path d="M1114.37 98.3125V118H1109.35V85.2727H1114.2V90.3864H1114.63C1115.4 88.7244 1116.56 87.3892 1118.12 86.3807C1119.69 85.358 1121.7 84.8466 1124.18 84.8466C1126.39 84.8466 1128.33 85.3011 1129.99 86.2102C1131.65 87.1051 1132.95 88.4687 1133.87 90.3011C1134.79 92.1193 1135.26 94.4205 1135.26 97.2045V118H1130.23V97.5455C1130.23 94.9744 1129.56 92.9716 1128.22 91.5369C1126.89 90.0881 1125.06 89.3636 1122.73 89.3636C1121.12 89.3636 1119.69 89.7116 1118.42 90.4077C1117.17 91.1037 1116.19 92.1193 1115.46 93.4545C1114.74 94.7898 1114.37 96.4091 1114.37 98.3125Z" fill="black"/>
<path d="M1161.32 118V85.2727H1166.18V90.3864H1166.6C1167.28 88.6392 1168.39 87.2827 1169.91 86.3168C1171.43 85.3366 1173.25 84.8466 1175.38 84.8466C1177.54 84.8466 1179.34 85.3366 1180.77 86.3168C1182.22 87.2827 1183.35 88.6392 1184.16 90.3864H1184.5C1185.34 88.696 1186.6 87.3537 1188.27 86.3594C1189.95 85.3509 1191.96 84.8466 1194.3 84.8466C1197.23 84.8466 1199.62 85.7628 1201.48 87.5952C1203.34 89.4134 1204.27 92.2472 1204.27 96.0966V118H1199.25V96.0966C1199.25 93.6818 1198.58 91.956 1197.26 90.919C1195.94 89.8821 1194.39 89.3636 1192.6 89.3636C1190.3 89.3636 1188.51 90.0597 1187.25 91.4517C1185.99 92.8295 1185.35 94.5767 1185.35 96.6932V118H1180.24V95.5852C1180.24 93.7244 1179.64 92.2258 1178.43 91.0895C1177.22 89.9389 1175.67 89.3636 1173.76 89.3636C1172.46 89.3636 1171.23 89.7116 1170.1 90.4077C1168.98 91.1037 1168.07 92.0696 1167.37 93.3054C1166.69 94.527 1166.35 95.9403 1166.35 97.5455V118H1161.32Z" fill="black"/>
<path d="M1213.47 118V85.2727H1218.5V118H1213.47ZM1216.02 79.8182C1215.04 79.8182 1214.2 79.4844 1213.49 78.8168C1212.79 78.1491 1212.44 77.3466 1212.44 76.4091C1212.44 75.4716 1212.79 74.669 1213.49 74.0014C1214.2 73.3338 1215.04 73 1216.02 73C1217 73 1217.84 73.3338 1218.54 74.0014C1219.25 74.669 1219.6 75.4716 1219.6 76.4091C1219.6 77.3466 1219.25 78.1491 1218.54 78.8168C1217.84 79.4844 1217 79.8182 1216.02 79.8182Z" fill="black"/>
<path d="M1232.73 98.3125V118H1227.71V85.2727H1232.56V90.3864H1232.99C1233.76 88.7244 1234.92 87.3892 1236.48 86.3807C1238.05 85.358 1240.06 84.8466 1242.54 84.8466C1244.75 84.8466 1246.69 85.3011 1248.35 86.2102C1250.01 87.1051 1251.31 88.4687 1252.23 90.3011C1253.15 92.1193 1253.61 94.4205 1253.61 97.2045V118H1248.59V97.5455C1248.59 94.9744 1247.92 92.9716 1246.58 91.5369C1245.25 90.0881 1243.42 89.3636 1241.09 89.3636C1239.48 89.3636 1238.05 89.7116 1236.78 90.4077C1235.53 91.1037 1234.55 92.1193 1233.82 93.4545C1233.1 94.7898 1232.73 96.4091 1232.73 98.3125Z" fill="black"/>
<path d="M1275.16 118.682C1272.43 118.682 1270.03 117.993 1267.94 116.615C1265.85 115.223 1264.22 113.263 1263.04 110.734C1261.86 108.192 1261.27 105.187 1261.27 101.722C1261.27 98.2841 1261.86 95.3011 1263.04 92.7727C1264.22 90.2443 1265.86 88.2912 1267.96 86.9134C1270.06 85.5355 1272.49 84.8466 1275.25 84.8466C1277.38 84.8466 1279.06 85.2017 1280.3 85.9119C1281.55 86.608 1282.5 87.4034 1283.15 88.2983C1283.82 89.179 1284.34 89.9034 1284.71 90.4716H1285.13V74.3636H1290.16V118H1285.3V112.972H1284.71C1284.34 113.568 1283.81 114.321 1283.13 115.23C1282.45 116.125 1281.48 116.928 1280.21 117.638C1278.95 118.334 1277.26 118.682 1275.16 118.682ZM1275.84 114.165C1277.86 114.165 1279.56 113.639 1280.96 112.588C1282.35 111.523 1283.41 110.053 1284.13 108.178C1284.86 106.288 1285.22 104.108 1285.22 101.636C1285.22 99.1932 1284.86 97.0554 1284.15 95.223C1283.44 93.3764 1282.39 91.9418 1281 90.919C1279.61 89.8821 1277.89 89.3636 1275.84 89.3636C1273.71 89.3636 1271.94 89.9105 1270.52 91.0043C1269.11 92.0838 1268.05 93.554 1267.34 95.4148C1266.65 97.2614 1266.3 99.3352 1266.3 101.636C1266.3 103.966 1266.65 106.082 1267.36 107.986C1268.09 109.875 1269.15 111.381 1270.56 112.503C1271.98 113.611 1273.74 114.165 1275.84 114.165Z" fill="black"/>
<path d="M1323.25 92.6023L1318.73 93.8807C1318.45 93.1278 1318.03 92.3963 1317.48 91.6861C1316.94 90.9616 1316.2 90.3651 1315.26 89.8963C1314.32 89.4276 1313.12 89.1932 1311.66 89.1932C1309.66 89.1932 1307.99 89.6548 1306.65 90.5781C1305.33 91.4872 1304.67 92.6449 1304.67 94.0511C1304.67 95.3011 1305.13 96.2884 1306.04 97.0128C1306.94 97.7372 1308.36 98.3409 1310.3 98.8239L1315.15 100.017C1318.08 100.727 1320.26 101.814 1321.7 103.277C1323.13 104.726 1323.85 106.594 1323.85 108.881C1323.85 110.756 1323.31 112.432 1322.23 113.909C1321.16 115.386 1319.67 116.551 1317.75 117.403C1315.84 118.256 1313.61 118.682 1311.06 118.682C1307.73 118.682 1304.96 117.957 1302.77 116.509C1300.59 115.06 1299.2 112.943 1298.62 110.159L1303.39 108.966C1303.85 110.727 1304.71 112.048 1305.97 112.929C1307.25 113.81 1308.92 114.25 1310.98 114.25C1313.32 114.25 1315.18 113.753 1316.56 112.759C1317.95 111.75 1318.65 110.543 1318.65 109.136C1318.65 108 1318.25 107.048 1317.46 106.281C1316.66 105.5 1315.44 104.918 1313.79 104.534L1308.34 103.256C1305.34 102.545 1303.14 101.445 1301.73 99.9531C1300.34 98.4474 1299.64 96.5653 1299.64 94.3068C1299.64 92.4602 1300.16 90.8267 1301.2 89.4062C1302.25 87.9858 1303.68 86.8707 1305.48 86.0611C1307.3 85.2514 1309.36 84.8466 1311.66 84.8466C1314.9 84.8466 1317.44 85.5568 1319.29 86.9773C1321.15 88.3977 1322.47 90.2727 1323.25 92.6023Z" fill="black"/>
<path d="M1335.08 118.341C1334.03 118.341 1333.13 117.964 1332.38 117.212C1331.62 116.459 1331.25 115.557 1331.25 114.506C1331.25 113.455 1331.62 112.553 1332.38 111.8C1333.13 111.047 1334.03 110.67 1335.08 110.67C1336.13 110.67 1337.03 111.047 1337.79 111.8C1338.54 112.553 1338.92 113.455 1338.92 114.506C1338.92 115.202 1338.74 115.841 1338.38 116.423C1338.04 117.006 1337.58 117.474 1337 117.83C1336.43 118.17 1335.79 118.341 1335.08 118.341Z" fill="black"/>
</svg>
