<svg width="533" height="84" viewBox="0 0 533 84" fill="none" xmlns="http://www.w3.org/2000/svg">
<path d="M47.8 41.04C52.52 41.92 56.4 44.28 59.44 48.12C62.48 51.96 64 56.36 64 61.32C64 65.8 62.88 69.76 60.64 73.2C58.48 76.56 55.32 79.2 51.16 81.12C47 83.04 42.08 84 36.4 84H0.279999V0.240001H34.84C40.52 0.240001 45.4 1.16 49.48 3C53.64 4.84 56.76 7.4 58.84 10.68C61 13.96 62.08 17.68 62.08 21.84C62.08 26.72 60.76 30.8 58.12 34.08C55.56 37.36 52.12 39.68 47.8 41.04ZM17.08 34.8H32.44C36.44 34.8 39.52 33.92 41.68 32.16C43.84 30.32 44.92 27.72 44.92 24.36C44.92 21 43.84 18.4 41.68 16.56C39.52 14.72 36.44 13.8 32.44 13.8H17.08V34.8ZM34 70.32C38.08 70.32 41.24 69.36 43.48 67.44C45.8 65.52 46.96 62.8 46.96 59.28C46.96 55.68 45.76 52.88 43.36 50.88C40.96 48.8 37.72 47.76 33.64 47.76H17.08V70.32H34Z" fill="black"/>
<path d="M94.1894 0.240001V84H77.3894V0.240001H94.1894Z" fill="black"/>
<path d="M140.068 0.240001C148.868 0.240001 156.588 1.96 163.228 5.4C169.948 8.84 175.108 13.76 178.708 20.16C182.388 26.48 184.228 33.84 184.228 42.24C184.228 50.64 182.388 58 178.708 64.32C175.108 70.56 169.948 75.4 163.228 78.84C156.588 82.28 148.868 84 140.068 84H110.788V0.240001H140.068ZM139.468 69.72C148.268 69.72 155.068 67.32 159.868 62.52C164.668 57.72 167.068 50.96 167.068 42.24C167.068 33.52 164.668 26.72 159.868 21.84C155.068 16.88 148.268 14.4 139.468 14.4H127.588V69.72H139.468Z" fill="black"/>
<path d="M253.803 0.240001V13.8H231.483V84H214.683V13.8H192.363V0.240001H253.803Z" fill="black"/>
<path d="M317.421 68.04H284.061L278.541 84H260.901L291.021 0.119995H310.581L340.701 84H322.941L317.421 68.04ZM312.861 54.6L300.741 19.56L288.621 54.6H312.861Z" fill="black"/>
<path d="M399.48 41.04C404.2 41.92 408.08 44.28 411.12 48.12C414.16 51.96 415.68 56.36 415.68 61.32C415.68 65.8 414.56 69.76 412.32 73.2C410.16 76.56 407 79.2 402.84 81.12C398.68 83.04 393.76 84 388.08 84H351.96V0.240001H386.52C392.2 0.240001 397.08 1.16 401.16 3C405.32 4.84 408.44 7.4 410.52 10.68C412.68 13.96 413.76 17.68 413.76 21.84C413.76 26.72 412.44 30.8 409.8 34.08C407.24 37.36 403.8 39.68 399.48 41.04ZM368.76 34.8H384.12C388.12 34.8 391.2 33.92 393.36 32.16C395.52 30.32 396.6 27.72 396.6 24.36C396.6 21 395.52 18.4 393.36 16.56C391.2 14.72 388.12 13.8 384.12 13.8H368.76V34.8ZM385.68 70.32C389.76 70.32 392.92 69.36 395.16 67.44C397.48 65.52 398.64 62.8 398.64 59.28C398.64 55.68 397.44 52.88 395.04 50.88C392.64 48.8 389.4 47.76 385.32 47.76H368.76V70.32H385.68Z" fill="black"/>
<path d="M445.869 70.68H473.469V84H429.069V0.240001H445.869V70.68Z" fill="black"/>
<path d="M500.947 13.8V34.8H529.147V48.12H500.947V70.32H532.747V84H484.147V0.119995H532.747V13.8H500.947Z" fill="black"/>
</svg>
