<svg width="1231" height="131" viewBox="0 0 1231 131" fill="none" xmlns="http://www.w3.org/2000/svg">
<path d="M37.2509 45V1.36364H52.5066C55.5463 1.36364 58.0534 1.8892 60.0279 2.94034C62.0023 3.97727 63.4725 5.37642 64.4384 7.13778C65.4043 8.88494 65.8872 10.8239 65.8872 12.9545C65.8872 14.8295 65.5534 16.3778 64.8858 17.5994C64.2324 18.821 63.3659 19.7869 62.2864 20.4972C61.221 21.2074 60.0634 21.733 58.8134 22.0739V22.5C60.1486 22.5852 61.4909 23.054 62.8404 23.9062C64.1898 24.7585 65.3191 25.9801 66.2281 27.571C67.1372 29.1619 67.5918 31.108 67.5918 33.4091C67.5918 35.5966 67.0946 37.5639 66.1003 39.3111C65.106 41.0582 63.5364 42.4432 61.3915 43.4659C59.2466 44.4886 56.4554 45 53.0179 45H37.2509ZM42.535 40.3125H53.0179C56.4696 40.3125 58.9199 39.6449 60.3688 38.3097C61.8318 36.9602 62.5634 35.3267 62.5634 33.4091C62.5634 31.9318 62.187 30.5682 61.4341 29.3182C60.6813 28.054 59.6088 27.0455 58.2168 26.2926C56.8247 25.5256 55.177 25.142 53.2736 25.142H42.535V40.3125ZM42.535 20.5398H52.3361C53.927 20.5398 55.3617 20.2273 56.6401 19.6023C57.9327 18.9773 58.9554 18.0966 59.7083 16.9602C60.4753 15.8239 60.8588 14.4886 60.8588 12.9545C60.8588 11.0369 60.1912 9.41051 58.856 8.07528C57.5208 6.72585 55.4043 6.05114 52.5066 6.05114H42.535V20.5398Z" fill="black"/>
<path d="M75.5925 45V12.2727H80.6209V45H75.5925ZM78.1493 6.81818C77.1692 6.81818 76.324 6.48438 75.6138 5.81676C74.9178 5.14915 74.5698 4.34659 74.5698 3.40909C74.5698 2.47159 74.9178 1.66903 75.6138 1.00142C76.324 0.333806 77.1692 0 78.1493 0C79.1294 0 79.9675 0.333806 80.6635 1.00142C81.3737 1.66903 81.7289 2.47159 81.7289 3.40909C81.7289 4.34659 81.3737 5.14915 80.6635 5.81676C79.9675 6.48438 79.1294 6.81818 78.1493 6.81818Z" fill="black"/>
<path d="M102.189 45.6818C99.4615 45.6818 97.0538 44.9929 94.9657 43.6151C92.8776 42.223 91.2441 40.2628 90.0651 37.7344C88.8862 35.1918 88.2967 32.1875 88.2967 28.7216C88.2967 25.2841 88.8862 22.3011 90.0651 19.7727C91.2441 17.2443 92.8847 15.2912 94.987 13.9134C97.0893 12.5355 99.5183 11.8466 102.274 11.8466C104.405 11.8466 106.088 12.2017 107.324 12.9119C108.574 13.608 109.525 14.4034 110.179 15.2983C110.846 16.179 111.365 16.9034 111.734 17.4716H112.16V1.36364H117.189V45H112.331V39.9716H111.734C111.365 40.5682 110.839 41.321 110.157 42.2301C109.476 43.125 108.503 43.9276 107.238 44.6378C105.974 45.3338 104.291 45.6818 102.189 45.6818ZM102.871 41.1648C104.888 41.1648 106.592 40.6392 107.984 39.5881C109.376 38.5227 110.434 37.0526 111.159 35.1776C111.883 33.2884 112.246 31.108 112.246 28.6364C112.246 26.1932 111.89 24.0554 111.18 22.223C110.47 20.3764 109.419 18.9418 108.027 17.919C106.635 16.8821 104.916 16.3636 102.871 16.3636C100.74 16.3636 98.9643 16.9105 97.5438 18.0043C96.1376 19.0838 95.0794 20.554 94.3691 22.4148C93.6731 24.2614 93.3251 26.3352 93.3251 28.6364C93.3251 30.9659 93.6802 33.0824 94.3904 34.9858C95.1149 36.875 96.1802 38.3807 97.5865 39.5028C99.0069 40.6108 100.768 41.1648 102.871 41.1648Z" fill="black"/>
<path d="M141.329 12.2727V16.5341H124.369V12.2727H141.329ZM129.312 4.43182H134.341V35.625C134.341 37.0455 134.547 38.1108 134.959 38.821C135.385 39.517 135.925 39.9858 136.578 40.2273C137.246 40.4545 137.949 40.5682 138.687 40.5682C139.241 40.5682 139.696 40.5398 140.051 40.483C140.406 40.4119 140.69 40.3551 140.903 40.3125L141.926 44.8295C141.585 44.9574 141.109 45.0852 140.498 45.2131C139.888 45.3551 139.113 45.4261 138.176 45.4261C136.755 45.4261 135.363 45.1207 134 44.5099C132.65 43.8991 131.528 42.9688 130.633 41.7188C129.753 40.4688 129.312 38.892 129.312 36.9886V4.43182Z" fill="black"/>
<path d="M158.524 45.767C156.45 45.767 154.568 45.3764 152.878 44.5952C151.187 43.7997 149.845 42.6562 148.851 41.1648C147.856 39.6591 147.359 37.8409 147.359 35.7102C147.359 33.8352 147.728 32.3153 148.467 31.1506C149.206 29.9716 150.193 29.0483 151.429 28.3807C152.665 27.7131 154.028 27.2159 155.52 26.8892C157.025 26.5483 158.538 26.2784 160.058 26.0795C162.047 25.8239 163.659 25.6321 164.895 25.5043C166.145 25.3622 167.054 25.1278 167.622 24.8011C168.204 24.4744 168.496 23.9062 168.496 23.0966V22.9261C168.496 20.8239 167.92 19.1903 166.77 18.0256C165.633 16.8608 163.907 16.2784 161.592 16.2784C159.192 16.2784 157.309 16.804 155.946 17.8551C154.582 18.9063 153.623 20.0284 153.069 21.2216L148.297 19.517C149.149 17.5284 150.285 15.9801 151.706 14.8722C153.14 13.75 154.703 12.9687 156.393 12.5284C158.098 12.0739 159.774 11.8466 161.422 11.8466C162.473 11.8466 163.68 11.9744 165.044 12.2301C166.422 12.4716 167.75 12.9759 169.028 13.7429C170.321 14.5099 171.393 15.6676 172.246 17.2159C173.098 18.7642 173.524 20.8381 173.524 23.4375V45H168.496V40.5682H168.24C167.899 41.2784 167.331 42.0384 166.535 42.848C165.74 43.6577 164.682 44.3466 163.361 44.9148C162.04 45.483 160.427 45.767 158.524 45.767ZM159.291 41.25C161.28 41.25 162.956 40.8594 164.319 40.0781C165.697 39.2969 166.734 38.2884 167.43 37.0526C168.14 35.8168 168.496 34.517 168.496 33.1534V28.5511C168.282 28.8068 167.814 29.0412 167.089 29.2543C166.379 29.4531 165.555 29.6307 164.618 29.7869C163.694 29.929 162.792 30.0568 161.912 30.1705C161.045 30.2699 160.342 30.3551 159.802 30.4261C158.496 30.5966 157.274 30.8736 156.138 31.2571C155.015 31.6264 154.106 32.1875 153.41 32.9403C152.729 33.679 152.388 34.6875 152.388 35.9659C152.388 37.7131 153.034 39.0341 154.327 39.929C155.633 40.8097 157.288 41.25 159.291 41.25Z" fill="black"/>
<path d="M183.384 45V1.36364H188.412V17.4716H188.838C189.208 16.9034 189.719 16.179 190.372 15.2983C191.04 14.4034 191.992 13.608 193.227 12.9119C194.477 12.2017 196.168 11.8466 198.298 11.8466C201.054 11.8466 203.483 12.5355 205.585 13.9134C207.688 15.2912 209.328 17.2443 210.507 19.7727C211.686 22.3011 212.276 25.2841 212.276 28.7216C212.276 32.1875 211.686 35.1918 210.507 37.7344C209.328 40.2628 207.695 42.223 205.607 43.6151C203.519 44.9929 201.111 45.6818 198.384 45.6818C196.281 45.6818 194.598 45.3338 193.334 44.6378C192.07 43.9276 191.097 43.125 190.415 42.2301C189.733 41.321 189.208 40.5682 188.838 39.9716H188.242V45H183.384ZM188.327 28.6364C188.327 31.108 188.689 33.2884 189.414 35.1776C190.138 37.0526 191.196 38.5227 192.588 39.5881C193.98 40.6392 195.685 41.1648 197.702 41.1648C199.804 41.1648 201.558 40.6108 202.965 39.5028C204.385 38.3807 205.45 36.875 206.161 34.9858C206.885 33.0824 207.247 30.9659 207.247 28.6364C207.247 26.3352 206.892 24.2614 206.182 22.4148C205.486 20.554 204.428 19.0838 203.007 18.0043C201.601 16.9105 199.833 16.3636 197.702 16.3636C195.656 16.3636 193.938 16.8821 192.546 17.919C191.154 18.9418 190.102 20.3764 189.392 22.223C188.682 24.0554 188.327 26.1932 188.327 28.6364Z" fill="black"/>
<path d="M224.996 1.36364V45H219.967V1.36364H224.996Z" fill="black"/>
<path d="M247.927 45.6818C244.774 45.6818 242.054 44.9858 239.767 43.5938C237.494 42.1875 235.74 40.2273 234.504 37.7131C233.282 35.1847 232.672 32.2443 232.672 28.892C232.672 25.5398 233.282 22.5852 234.504 20.0284C235.74 17.4574 237.459 15.4545 239.66 14.0199C241.876 12.571 244.461 11.8466 247.416 11.8466C249.121 11.8466 250.804 12.1307 252.466 12.6989C254.128 13.267 255.64 14.1903 257.004 15.4688C258.368 16.733 259.454 18.4091 260.264 20.4972C261.074 22.5852 261.478 25.1562 261.478 28.2102V30.3409H236.251V25.9943H256.365C256.365 24.1477 255.996 22.5 255.257 21.0511C254.532 19.6023 253.496 18.4588 252.146 17.6207C250.811 16.7827 249.234 16.3636 247.416 16.3636C245.413 16.3636 243.68 16.8608 242.217 17.8551C240.768 18.8352 239.653 20.1136 238.872 21.6903C238.091 23.267 237.7 24.9574 237.7 26.7614V29.6591C237.7 32.1307 238.126 34.2259 238.979 35.9446C239.845 37.6491 241.045 38.9489 242.579 39.8438C244.113 40.7244 245.896 41.1648 247.927 41.1648C249.248 41.1648 250.442 40.9801 251.507 40.6108C252.586 40.2273 253.517 39.6591 254.298 38.9062C255.079 38.1392 255.683 37.1875 256.109 36.0511L260.967 37.4148C260.456 39.0625 259.596 40.5114 258.389 41.7614C257.182 42.9972 255.69 43.9631 253.915 44.6591C252.139 45.3409 250.143 45.6818 247.927 45.6818Z" fill="black"/>
<path d="M293.417 45L283.446 12.2727H288.73L295.804 37.3295H296.145L303.133 12.2727H308.503L315.406 37.2443H315.747L322.821 12.2727H328.105L318.133 45H313.19L306.031 19.858H305.52L298.361 45H293.417Z" fill="black"/>
<path d="M334.753 45V12.2727H339.781V45H334.753ZM337.309 6.81818C336.329 6.81818 335.484 6.48438 334.774 5.81676C334.078 5.14915 333.73 4.34659 333.73 3.40909C333.73 2.47159 334.078 1.66903 334.774 1.00142C335.484 0.333806 336.329 0 337.309 0C338.29 0 339.128 0.333806 339.824 1.00142C340.534 1.66903 340.889 2.47159 340.889 3.40909C340.889 4.34659 340.534 5.14915 339.824 5.81676C339.128 6.48438 338.29 6.81818 337.309 6.81818Z" fill="black"/>
<path d="M354.019 1.36364V45H348.991V1.36364H354.019Z" fill="black"/>
<path d="M368.258 1.36364V45H363.229V1.36364H368.258Z" fill="black"/>
<path d="M407.638 45.6818C404.57 45.6818 401.928 44.9574 399.712 43.5085C397.496 42.0597 395.791 40.0639 394.598 37.5213C393.405 34.9787 392.808 32.0739 392.808 28.8068C392.808 25.483 393.419 22.5497 394.641 20.0071C395.877 17.4503 397.595 15.4545 399.797 14.0199C402.013 12.571 404.598 11.8466 407.553 11.8466C409.854 11.8466 411.928 12.2727 413.774 13.125C415.621 13.9773 417.134 15.1705 418.313 16.7045C419.492 18.2386 420.223 20.0284 420.507 22.0739H415.479C415.095 20.5824 414.243 19.2614 412.922 18.1108C411.615 16.946 409.854 16.3636 407.638 16.3636C405.678 16.3636 403.959 16.875 402.482 17.8977C401.019 18.9062 399.875 20.3338 399.051 22.1804C398.242 24.0128 397.837 26.1648 397.837 28.6364C397.837 31.1648 398.235 33.3665 399.03 35.2415C399.84 37.1165 400.976 38.5724 402.439 39.6094C403.916 40.6463 405.649 41.1648 407.638 41.1648C408.945 41.1648 410.131 40.9375 411.196 40.483C412.262 40.0284 413.164 39.375 413.902 38.5227C414.641 37.6705 415.166 36.6477 415.479 35.4545H420.507C420.223 37.3864 419.52 39.1264 418.398 40.6747C417.29 42.2088 415.82 43.4304 413.987 44.3395C412.169 45.2344 410.053 45.6818 407.638 45.6818Z" fill="black"/>
<path d="M441.154 45.6818C438.199 45.6818 435.607 44.9787 433.377 43.5724C431.161 42.1662 429.428 40.1989 428.178 37.6705C426.942 35.142 426.324 32.1875 426.324 28.8068C426.324 25.3977 426.942 22.4219 428.178 19.8793C429.428 17.3366 431.161 15.3622 433.377 13.956C435.607 12.5497 438.199 11.8466 441.154 11.8466C444.108 11.8466 446.693 12.5497 448.909 13.956C451.139 15.3622 452.872 17.3366 454.108 19.8793C455.358 22.4219 455.983 25.3977 455.983 28.8068C455.983 32.1875 455.358 35.142 454.108 37.6705C452.872 40.1989 451.139 42.1662 448.909 43.5724C446.693 44.9787 444.108 45.6818 441.154 45.6818ZM441.154 41.1648C443.398 41.1648 445.244 40.5895 446.693 39.4389C448.142 38.2884 449.215 36.7756 449.911 34.9006C450.607 33.0256 450.955 30.9943 450.955 28.8068C450.955 26.6193 450.607 24.581 449.911 22.6918C449.215 20.8026 448.142 19.2756 446.693 18.1108C445.244 16.946 443.398 16.3636 441.154 16.3636C438.909 16.3636 437.063 16.946 435.614 18.1108C434.165 19.2756 433.092 20.8026 432.396 22.6918C431.7 24.581 431.352 26.6193 431.352 28.8068C431.352 30.9943 431.7 33.0256 432.396 34.9006C433.092 36.7756 434.165 38.2884 435.614 39.4389C437.063 40.5895 438.909 41.1648 441.154 41.1648Z" fill="black"/>
<path d="M468.687 25.3125V45H463.659V12.2727H468.517V17.3864H468.943C469.71 15.7244 470.875 14.3892 472.437 13.3807C474 12.358 476.017 11.8466 478.488 11.8466C480.704 11.8466 482.643 12.3011 484.305 13.2102C485.967 14.1051 487.26 15.4688 488.183 17.3011C489.106 19.1193 489.568 21.4205 489.568 24.2045V45H484.54V24.5455C484.54 21.9744 483.872 19.9716 482.537 18.5369C481.202 17.0881 479.369 16.3636 477.04 16.3636C475.434 16.3636 474 16.7116 472.736 17.4077C471.486 18.1037 470.498 19.1193 469.774 20.4545C469.05 21.7898 468.687 23.4091 468.687 25.3125Z" fill="black"/>
<path d="M503.785 25.3125V45H498.757V12.2727H503.615V17.3864H504.041C504.808 15.7244 505.972 14.3892 507.535 13.3807C509.097 12.358 511.115 11.8466 513.586 11.8466C515.802 11.8466 517.741 12.3011 519.403 13.2102C521.065 14.1051 522.357 15.4688 523.281 17.3011C524.204 19.1193 524.666 21.4205 524.666 24.2045V45H519.637V24.5455C519.637 21.9744 518.97 19.9716 517.634 18.5369C516.299 17.0881 514.467 16.3636 512.137 16.3636C510.532 16.3636 509.097 16.7116 507.833 17.4077C506.583 18.1037 505.596 19.1193 504.872 20.4545C504.147 21.7898 503.785 23.4091 503.785 25.3125Z" fill="black"/>
<path d="M547.576 45.6818C544.422 45.6818 541.702 44.9858 539.415 43.5938C537.143 42.1875 535.388 40.2273 534.153 37.7131C532.931 35.1847 532.32 32.2443 532.32 28.892C532.32 25.5398 532.931 22.5852 534.153 20.0284C535.388 17.4574 537.107 15.4545 539.309 14.0199C541.525 12.571 544.11 11.8466 547.064 11.8466C548.769 11.8466 550.452 12.1307 552.114 12.6989C553.776 13.267 555.289 14.1903 556.653 15.4688C558.016 16.733 559.103 18.4091 559.912 20.4972C560.722 22.5852 561.127 25.1562 561.127 28.2102V30.3409H535.9V25.9943H556.013C556.013 24.1477 555.644 22.5 554.905 21.0511C554.181 19.6023 553.144 18.4588 551.795 17.6207C550.459 16.7827 548.883 16.3636 547.064 16.3636C545.062 16.3636 543.329 16.8608 541.866 17.8551C540.417 18.8352 539.302 20.1136 538.52 21.6903C537.739 23.267 537.349 24.9574 537.349 26.7614V29.6591C537.349 32.1307 537.775 34.2259 538.627 35.9446C539.493 37.6491 540.694 38.9489 542.228 39.8438C543.762 40.7244 545.545 41.1648 547.576 41.1648C548.897 41.1648 550.09 40.9801 551.155 40.6108C552.235 40.2273 553.165 39.6591 553.947 38.9062C554.728 38.1392 555.331 37.1875 555.758 36.0511L560.616 37.4148C560.104 39.0625 559.245 40.5114 558.037 41.7614C556.83 42.9972 555.339 43.9631 553.563 44.6591C551.787 45.3409 549.792 45.6818 547.576 45.6818Z" fill="black"/>
<path d="M582.072 45.6818C579.003 45.6818 576.361 44.9574 574.145 43.5085C571.929 42.0597 570.225 40.0639 569.032 37.5213C567.839 34.9787 567.242 32.0739 567.242 28.8068C567.242 25.483 567.853 22.5497 569.074 20.0071C570.31 17.4503 572.029 15.4545 574.231 14.0199C576.447 12.571 579.032 11.8466 581.986 11.8466C584.287 11.8466 586.361 12.2727 588.208 13.125C590.054 13.9773 591.567 15.1705 592.746 16.7045C593.925 18.2386 594.657 20.0284 594.941 22.0739H589.912C589.529 20.5824 588.677 19.2614 587.356 18.1108C586.049 16.946 584.287 16.3636 582.072 16.3636C580.111 16.3636 578.393 16.875 576.915 17.8977C575.452 18.9062 574.309 20.3338 573.485 22.1804C572.675 24.0128 572.27 26.1648 572.27 28.6364C572.27 31.1648 572.668 33.3665 573.464 35.2415C574.273 37.1165 575.41 38.5724 576.873 39.6094C578.35 40.6463 580.083 41.1648 582.072 41.1648C583.378 41.1648 584.564 40.9375 585.63 40.483C586.695 40.0284 587.597 39.375 588.336 38.5227C589.074 37.6705 589.6 36.6477 589.912 35.4545H594.941C594.657 37.3864 593.954 39.1264 592.831 40.6747C591.724 42.2088 590.253 43.4304 588.421 44.3395C586.603 45.2344 584.486 45.6818 582.072 45.6818Z" fill="black"/>
<path d="M616.525 12.2727V16.5341H599.564V12.2727H616.525ZM604.508 4.43182H609.536V35.625C609.536 37.0455 609.742 38.1108 610.154 38.821C610.58 39.517 611.12 39.9858 611.773 40.2273C612.441 40.4545 613.144 40.5682 613.883 40.5682C614.437 40.5682 614.891 40.5398 615.246 40.483C615.601 40.4119 615.885 40.3551 616.099 40.3125L617.121 44.8295C616.78 44.9574 616.305 45.0852 615.694 45.2131C615.083 45.3551 614.309 45.4261 613.371 45.4261C611.951 45.4261 610.559 45.1207 609.195 44.5099C607.846 43.8991 606.724 42.9688 605.829 41.7188C604.948 40.4688 604.508 38.892 604.508 36.9886V4.43182Z" fill="black"/>
<path d="M650.594 45.767C648.52 45.767 646.638 45.3764 644.948 44.5952C643.258 43.7997 641.915 42.6562 640.921 41.1648C639.927 39.6591 639.43 37.8409 639.43 35.7102C639.43 33.8352 639.799 32.3153 640.537 31.1506C641.276 29.9716 642.263 29.0483 643.499 28.3807C644.735 27.7131 646.099 27.2159 647.59 26.8892C649.096 26.5483 650.608 26.2784 652.128 26.0795C654.117 25.8239 655.729 25.6321 656.965 25.5043C658.215 25.3622 659.124 25.1278 659.692 24.8011C660.275 24.4744 660.566 23.9062 660.566 23.0966V22.9261C660.566 20.8239 659.991 19.1903 658.84 18.0256C657.704 16.8608 655.978 16.2784 653.662 16.2784C651.262 16.2784 649.38 16.804 648.016 17.8551C646.652 18.9063 645.694 20.0284 645.14 21.2216L640.367 19.517C641.219 17.5284 642.356 15.9801 643.776 14.8722C645.211 13.75 646.773 12.9687 648.464 12.5284C650.168 12.0739 651.844 11.8466 653.492 11.8466C654.543 11.8466 655.75 11.9744 657.114 12.2301C658.492 12.4716 659.82 12.9759 661.099 13.7429C662.391 14.5099 663.464 15.6676 664.316 17.2159C665.168 18.7642 665.594 20.8381 665.594 23.4375V45H660.566V40.5682H660.31C659.969 41.2784 659.401 42.0384 658.606 42.848C657.81 43.6577 656.752 44.3466 655.431 44.9148C654.11 45.483 652.498 45.767 650.594 45.767ZM651.361 41.25C653.35 41.25 655.026 40.8594 656.39 40.0781C657.768 39.2969 658.804 38.2884 659.5 37.0526C660.211 35.8168 660.566 34.517 660.566 33.1534V28.5511C660.353 28.8068 659.884 29.0412 659.16 29.2543C658.449 29.4531 657.625 29.6307 656.688 29.7869C655.765 29.929 654.863 30.0568 653.982 30.1705C653.116 30.2699 652.412 30.3551 651.873 30.4261C650.566 30.5966 649.344 30.8736 648.208 31.2571C647.086 31.6264 646.177 32.1875 645.481 32.9403C644.799 33.679 644.458 34.6875 644.458 35.9659C644.458 37.7131 645.104 39.0341 646.397 39.929C647.704 40.8097 649.358 41.25 651.361 41.25Z" fill="black"/>
<path d="M679.801 1.36364V45H674.772V1.36364H679.801Z" fill="black"/>
<path d="M694.039 1.36364V45H689.01V1.36364H694.039Z" fill="black"/>
<path d="M720.124 57.2727V12.2727H724.982V17.4716H725.578C725.948 16.9034 726.459 16.179 727.112 15.2983C727.78 14.4034 728.732 13.608 729.967 12.9119C731.217 12.2017 732.908 11.8466 735.039 11.8466C737.794 11.8466 740.223 12.5355 742.325 13.9134C744.428 15.2912 746.068 17.2443 747.247 19.7727C748.426 22.3011 749.016 25.2841 749.016 28.7216C749.016 32.1875 748.426 35.1918 747.247 37.7344C746.068 40.2628 744.435 42.223 742.347 43.6151C740.259 44.9929 737.851 45.6818 735.124 45.6818C733.021 45.6818 731.338 45.3338 730.074 44.6378C728.81 43.9276 727.837 43.125 727.155 42.2301C726.473 41.321 725.948 40.5682 725.578 39.9716H725.152V57.2727H720.124ZM725.067 28.6364C725.067 31.108 725.429 33.2884 726.154 35.1776C726.878 37.0526 727.936 38.5227 729.328 39.5881C730.72 40.6392 732.425 41.1648 734.442 41.1648C736.544 41.1648 738.298 40.6108 739.705 39.5028C741.125 38.3807 742.191 36.875 742.901 34.9858C743.625 33.0824 743.987 30.9659 743.987 28.6364C743.987 26.3352 743.632 24.2614 742.922 22.4148C742.226 20.554 741.168 19.0838 739.747 18.0043C738.341 16.9105 736.573 16.3636 734.442 16.3636C732.396 16.3636 730.678 16.8821 729.286 17.919C727.894 18.9418 726.842 20.3764 726.132 22.223C725.422 24.0554 725.067 26.1932 725.067 28.6364Z" fill="black"/>
<path d="M761.715 1.36364V45H756.686V1.36364H761.715Z" fill="black"/>
<path d="M780.555 45.767C778.481 45.767 776.599 45.3764 774.909 44.5952C773.219 43.7997 771.876 42.6562 770.882 41.1648C769.888 39.6591 769.39 37.8409 769.39 35.7102C769.39 33.8352 769.76 32.3153 770.498 31.1506C771.237 29.9716 772.224 29.0483 773.46 28.3807C774.696 27.7131 776.059 27.2159 777.551 26.8892C779.057 26.5483 780.569 26.2784 782.089 26.0795C784.078 25.8239 785.69 25.6321 786.926 25.5043C788.176 25.3622 789.085 25.1278 789.653 24.8011C790.236 24.4744 790.527 23.9062 790.527 23.0966V22.9261C790.527 20.8239 789.952 19.1903 788.801 18.0256C787.665 16.8608 785.939 16.2784 783.623 16.2784C781.223 16.2784 779.341 16.804 777.977 17.8551C776.613 18.9063 775.655 20.0284 775.101 21.2216L770.328 19.517C771.18 17.5284 772.317 15.9801 773.737 14.8722C775.172 13.75 776.734 12.9687 778.424 12.5284C780.129 12.0739 781.805 11.8466 783.453 11.8466C784.504 11.8466 785.711 11.9744 787.075 12.2301C788.453 12.4716 789.781 12.9759 791.059 13.7429C792.352 14.5099 793.425 15.6676 794.277 17.2159C795.129 18.7642 795.555 20.8381 795.555 23.4375V45H790.527V40.5682H790.271C789.93 41.2784 789.362 42.0384 788.567 42.848C787.771 43.6577 786.713 44.3466 785.392 44.9148C784.071 45.483 782.459 45.767 780.555 45.767ZM781.322 41.25C783.311 41.25 784.987 40.8594 786.351 40.0781C787.728 39.2969 788.765 38.2884 789.461 37.0526C790.172 35.8168 790.527 34.517 790.527 33.1534V28.5511C790.314 28.8068 789.845 29.0412 789.121 29.2543C788.41 29.4531 787.586 29.6307 786.649 29.7869C785.726 29.929 784.824 30.0568 783.943 30.1705C783.077 30.2699 782.373 30.3551 781.834 30.4261C780.527 30.5966 779.305 30.8736 778.169 31.2571C777.047 31.6264 776.138 32.1875 775.442 32.9403C774.76 33.679 774.419 34.6875 774.419 35.9659C774.419 37.7131 775.065 39.0341 776.358 39.929C777.665 40.8097 779.319 41.25 781.322 41.25Z" fill="black"/>
<path d="M806.8 57.2727C805.948 57.2727 805.188 57.2017 804.52 57.0597C803.852 56.9318 803.391 56.804 803.135 56.6761L804.414 52.2443C805.635 52.5568 806.715 52.6705 807.652 52.5852C808.59 52.5 809.421 52.081 810.145 51.3281C810.884 50.5895 811.558 49.3892 812.169 47.7273L813.107 45.1705L801.004 12.2727H806.459L815.493 38.3523H815.834L824.868 12.2727H830.323L816.431 49.7727C815.806 51.4631 815.031 52.8622 814.108 53.9702C813.185 55.0923 812.112 55.9233 810.891 56.4631C809.683 57.0028 808.32 57.2727 806.8 57.2727Z" fill="black"/>
<path d="M849.509 45.6818C846.356 45.6818 843.636 44.9858 841.349 43.5938C839.076 42.1875 837.322 40.2273 836.086 37.7131C834.865 35.1847 834.254 32.2443 834.254 28.892C834.254 25.5398 834.865 22.5852 836.086 20.0284C837.322 17.4574 839.041 15.4545 841.242 14.0199C843.458 12.571 846.044 11.8466 848.998 11.8466C850.703 11.8466 852.386 12.1307 854.048 12.6989C855.71 13.267 857.222 14.1903 858.586 15.4688C859.95 16.733 861.036 18.4091 861.846 20.4972C862.656 22.5852 863.061 25.1562 863.061 28.2102V30.3409H837.833V25.9943H857.947C857.947 24.1477 857.578 22.5 856.839 21.0511C856.114 19.6023 855.078 18.4588 853.728 17.6207C852.393 16.7827 850.816 16.3636 848.998 16.3636C846.995 16.3636 845.262 16.8608 843.799 17.8551C842.35 18.8352 841.235 20.1136 840.454 21.6903C839.673 23.267 839.282 24.9574 839.282 26.7614V29.6591C839.282 32.1307 839.708 34.2259 840.561 35.9446C841.427 37.6491 842.627 38.9489 844.161 39.8438C845.695 40.7244 847.478 41.1648 849.509 41.1648C850.83 41.1648 852.024 40.9801 853.089 40.6108C854.168 40.2273 855.099 39.6591 855.88 38.9062C856.661 38.1392 857.265 37.1875 857.691 36.0511L862.549 37.4148C862.038 39.0625 861.178 40.5114 859.971 41.7614C858.764 42.9972 857.272 43.9631 855.497 44.6591C853.721 45.3409 851.725 45.6818 849.509 45.6818Z" fill="black"/>
<path d="M870.71 45V12.2727H875.568V17.2159H875.909C876.505 15.5966 877.585 14.2827 879.147 13.2741C880.71 12.2656 882.471 11.7614 884.431 11.7614C884.801 11.7614 885.262 11.7685 885.816 11.7827C886.37 11.7969 886.789 11.8182 887.073 11.8466V16.9602C886.903 16.9176 886.512 16.8537 885.901 16.7685C885.305 16.669 884.673 16.6193 884.005 16.6193C882.414 16.6193 880.994 16.9531 879.744 17.6207C878.508 18.2741 877.528 19.1832 876.803 20.348C876.093 21.4986 875.738 22.8125 875.738 24.2898V45H870.71Z" fill="black"/>
<path d="M916.216 19.6023L911.699 20.8807C911.415 20.1278 910.996 19.3963 910.442 18.6861C909.902 17.9616 909.163 17.3651 908.226 16.8963C907.288 16.4276 906.088 16.1932 904.625 16.1932C902.622 16.1932 900.953 16.6548 899.618 17.5781C898.297 18.4872 897.636 19.6449 897.636 21.0511C897.636 22.3011 898.091 23.2884 899 24.0128C899.909 24.7372 901.329 25.3409 903.261 25.8239L908.119 27.017C911.045 27.7273 913.226 28.8139 914.66 30.277C916.095 31.7259 916.812 33.5937 916.812 35.8807C916.812 37.7557 916.273 39.4318 915.193 40.9091C914.128 42.3864 912.636 43.5511 910.719 44.4034C908.801 45.2557 906.571 45.6818 904.028 45.6818C900.69 45.6818 897.927 44.9574 895.74 43.5085C893.552 42.0597 892.167 39.9432 891.585 37.1591L896.358 35.9659C896.812 37.7273 897.672 39.0483 898.936 39.929C900.214 40.8097 901.883 41.25 903.943 41.25C906.287 41.25 908.148 40.7528 909.525 39.7585C910.917 38.75 911.613 37.5426 911.613 36.1364C911.613 35 911.216 34.0483 910.42 33.2812C909.625 32.5 908.403 31.9176 906.755 31.5341L901.301 30.2557C898.304 29.5455 896.102 28.4446 894.696 26.9531C893.304 25.4474 892.608 23.5653 892.608 21.3068C892.608 19.4602 893.126 17.8267 894.163 16.4062C895.214 14.9858 896.642 13.8707 898.446 13.0611C900.264 12.2514 902.324 11.8466 904.625 11.8466C907.863 11.8466 910.406 12.5568 912.253 13.9773C914.113 15.3977 915.434 17.2727 916.216 19.6023Z" fill="black"/>
<path d="M931.882 39.0341L931.541 41.3352C931.299 42.9545 930.93 44.6875 930.433 46.5341C929.95 48.3807 929.445 50.1207 928.92 51.7543C928.394 53.3878 927.961 54.6875 927.62 55.6534H923.785C923.97 54.7443 924.211 53.544 924.509 52.0526C924.808 50.5611 925.106 48.892 925.404 47.0455C925.717 45.2131 925.972 43.3381 926.171 41.4205L926.427 39.0341H931.882Z" fill="black"/>
<path d="M958.755 45V1.36364H963.783V17.4716H964.209C964.579 16.9034 965.09 16.179 965.743 15.2983C966.411 14.4034 967.363 13.608 968.599 12.9119C969.849 12.2017 971.539 11.8466 973.67 11.8466C976.425 11.8466 978.854 12.5355 980.956 13.9134C983.059 15.2912 984.699 17.2443 985.878 19.7727C987.057 22.3011 987.647 25.2841 987.647 28.7216C987.647 32.1875 987.057 35.1918 985.878 37.7344C984.699 40.2628 983.066 42.223 980.978 43.6151C978.89 44.9929 976.482 45.6818 973.755 45.6818C971.652 45.6818 969.969 45.3338 968.705 44.6378C967.441 43.9276 966.468 43.125 965.786 42.2301C965.104 41.321 964.579 40.5682 964.209 39.9716H963.613V45H958.755ZM963.698 28.6364C963.698 31.108 964.06 33.2884 964.785 35.1776C965.509 37.0526 966.567 38.5227 967.959 39.5881C969.351 40.6392 971.056 41.1648 973.073 41.1648C975.175 41.1648 976.93 40.6108 978.336 39.5028C979.756 38.3807 980.822 36.875 981.532 34.9858C982.256 33.0824 982.618 30.9659 982.618 28.6364C982.618 26.3352 982.263 24.2614 981.553 22.4148C980.857 20.554 979.799 19.0838 978.378 18.0043C976.972 16.9105 975.204 16.3636 973.073 16.3636C971.027 16.3636 969.309 16.8821 967.917 17.919C966.525 18.9418 965.474 20.3764 964.763 22.223C964.053 24.0554 963.698 26.1932 963.698 28.6364Z" fill="black"/>
<path d="M1009.06 45.6818C1005.91 45.6818 1003.19 44.9858 1000.9 43.5938C998.627 42.1875 996.873 40.2273 995.637 37.7131C994.415 35.1847 993.805 32.2443 993.805 28.892C993.805 25.5398 994.415 22.5852 995.637 20.0284C996.873 17.4574 998.591 15.4545 1000.79 14.0199C1003.01 12.571 1005.59 11.8466 1008.55 11.8466C1010.25 11.8466 1011.94 12.1307 1013.6 12.6989C1015.26 13.267 1016.77 14.1903 1018.14 15.4688C1019.5 16.733 1020.59 18.4091 1021.4 20.4972C1022.21 22.5852 1022.61 25.1562 1022.61 28.2102V30.3409H997.384V25.9943H1017.5C1017.5 24.1477 1017.13 22.5 1016.39 21.0511C1015.67 19.6023 1014.63 18.4588 1013.28 17.6207C1011.94 16.7827 1010.37 16.3636 1008.55 16.3636C1006.55 16.3636 1004.81 16.8608 1003.35 17.8551C1001.9 18.8352 1000.79 20.1136 1000 21.6903C999.224 23.267 998.833 24.9574 998.833 26.7614V29.6591C998.833 32.1307 999.259 34.2259 1000.11 35.9446C1000.98 37.6491 1002.18 38.9489 1003.71 39.8438C1005.25 40.7244 1007.03 41.1648 1009.06 41.1648C1010.38 41.1648 1011.57 40.9801 1012.64 40.6108C1013.72 40.2273 1014.65 39.6591 1015.43 38.9062C1016.21 38.1392 1016.82 37.1875 1017.24 36.0511L1022.1 37.4148C1021.59 39.0625 1020.73 40.5114 1019.52 41.7614C1018.31 42.9972 1016.82 43.9631 1015.05 44.6591C1013.27 45.3409 1011.28 45.6818 1009.06 45.6818Z" fill="black"/>
<path d="M1044.49 12.2727V16.5341H1027.53V12.2727H1044.49ZM1032.48 4.43182H1037.5V35.625C1037.5 37.0455 1037.71 38.1108 1038.12 38.821C1038.55 39.517 1039.09 39.9858 1039.74 40.2273C1040.41 40.4545 1041.11 40.5682 1041.85 40.5682C1042.41 40.5682 1042.86 40.5398 1043.22 40.483C1043.57 40.4119 1043.85 40.3551 1044.07 40.3125L1045.09 44.8295C1044.75 44.9574 1044.27 45.0852 1043.66 45.2131C1043.05 45.3551 1042.28 45.4261 1041.34 45.4261C1039.92 45.4261 1038.53 45.1207 1037.16 44.5099C1035.81 43.8991 1034.69 42.9688 1033.8 41.7188C1032.92 40.4688 1032.48 38.892 1032.48 36.9886V4.43182Z" fill="black"/>
<path d="M1059.47 45L1049.5 12.2727H1054.78L1061.86 37.3295H1062.2L1069.19 12.2727H1074.56L1081.46 37.2443H1081.8L1088.88 12.2727H1094.16L1084.19 45H1079.24L1072.09 19.858H1071.57L1064.42 45H1059.47Z" fill="black"/>
<path d="M1113.42 45.6818C1110.26 45.6818 1107.54 44.9858 1105.26 43.5938C1102.98 42.1875 1101.23 40.2273 1099.99 37.7131C1098.77 35.1847 1098.16 32.2443 1098.16 28.892C1098.16 25.5398 1098.77 22.5852 1099.99 20.0284C1101.23 17.4574 1102.95 15.4545 1105.15 14.0199C1107.36 12.571 1109.95 11.8466 1112.9 11.8466C1114.61 11.8466 1116.29 12.1307 1117.95 12.6989C1119.62 13.267 1121.13 14.1903 1122.49 15.4688C1123.86 16.733 1124.94 18.4091 1125.75 20.4972C1126.56 22.5852 1126.97 25.1562 1126.97 28.2102V30.3409H1101.74V25.9943H1121.85C1121.85 24.1477 1121.48 22.5 1120.75 21.0511C1120.02 19.6023 1118.98 18.4588 1117.63 17.6207C1116.3 16.7827 1114.72 16.3636 1112.9 16.3636C1110.9 16.3636 1109.17 16.8608 1107.71 17.8551C1106.26 18.8352 1105.14 20.1136 1104.36 21.6903C1103.58 23.267 1103.19 24.9574 1103.19 26.7614V29.6591C1103.19 32.1307 1103.61 34.2259 1104.47 35.9446C1105.33 37.6491 1106.53 38.9489 1108.07 39.8438C1109.6 40.7244 1111.38 41.1648 1113.42 41.1648C1114.74 41.1648 1115.93 40.9801 1117 40.6108C1118.07 40.2273 1119.01 39.6591 1119.79 38.9062C1120.57 38.1392 1121.17 37.1875 1121.6 36.0511L1126.46 37.4148C1125.94 39.0625 1125.08 40.5114 1123.88 41.7614C1122.67 42.9972 1121.18 43.9631 1119.4 44.6591C1117.63 45.3409 1115.63 45.6818 1113.42 45.6818Z" fill="black"/>
<path d="M1148.34 45.6818C1145.18 45.6818 1142.46 44.9858 1140.18 43.5938C1137.9 42.1875 1136.15 40.2273 1134.91 37.7131C1133.69 35.1847 1133.08 32.2443 1133.08 28.892C1133.08 25.5398 1133.69 22.5852 1134.91 20.0284C1136.15 17.4574 1137.87 15.4545 1140.07 14.0199C1142.29 12.571 1144.87 11.8466 1147.83 11.8466C1149.53 11.8466 1151.21 12.1307 1152.88 12.6989C1154.54 13.267 1156.05 14.1903 1157.41 15.4688C1158.78 16.733 1159.86 18.4091 1160.67 20.4972C1161.48 22.5852 1161.89 25.1562 1161.89 28.2102V30.3409H1136.66V25.9943H1156.77C1156.77 24.1477 1156.41 22.5 1155.67 21.0511C1154.94 19.6023 1153.91 18.4588 1152.56 17.6207C1151.22 16.7827 1149.64 16.3636 1147.83 16.3636C1145.82 16.3636 1144.09 16.8608 1142.63 17.8551C1141.18 18.8352 1140.06 20.1136 1139.28 21.6903C1138.5 23.267 1138.11 24.9574 1138.11 26.7614V29.6591C1138.11 32.1307 1138.54 34.2259 1139.39 35.9446C1140.26 37.6491 1141.46 38.9489 1142.99 39.8438C1144.52 40.7244 1146.31 41.1648 1148.34 41.1648C1149.66 41.1648 1150.85 40.9801 1151.92 40.6108C1153 40.2273 1153.93 39.6591 1154.71 38.9062C1155.49 38.1392 1156.09 37.1875 1156.52 36.0511L1161.38 37.4148C1160.87 39.0625 1160.01 40.5114 1158.8 41.7614C1157.59 42.9972 1156.1 43.9631 1154.32 44.6591C1152.55 45.3409 1150.55 45.6818 1148.34 45.6818Z" fill="black"/>
<path d="M1174.57 25.3125V45H1169.54V12.2727H1174.4V17.3864H1174.82C1175.59 15.7244 1176.75 14.3892 1178.32 13.3807C1179.88 12.358 1181.9 11.8466 1184.37 11.8466C1186.58 11.8466 1188.52 12.3011 1190.18 13.2102C1191.85 14.1051 1193.14 15.4688 1194.06 17.3011C1194.99 19.1193 1195.45 21.4205 1195.45 24.2045V45H1190.42V24.5455C1190.42 21.9744 1189.75 19.9716 1188.42 18.5369C1187.08 17.0881 1185.25 16.3636 1182.92 16.3636C1181.31 16.3636 1179.88 16.7116 1178.61 17.4077C1177.36 18.1037 1176.38 19.1193 1175.65 20.4545C1174.93 21.7898 1174.57 23.4091 1174.57 25.3125Z" fill="black"/>
<path d="M1.58858 118V85.2727H6.61699V118H1.58858ZM4.1454 79.8182C3.16529 79.8182 2.32012 79.4844 1.60989 78.8168C0.913868 78.1491 0.565857 77.3466 0.565857 76.4091C0.565857 75.4716 0.913868 74.669 1.60989 74.0014C2.32012 73.3338 3.16529 73 4.1454 73C5.12552 73 5.96358 73.3338 6.65961 74.0014C7.36983 74.669 7.72495 75.4716 7.72495 76.4091C7.72495 77.3466 7.36983 78.1491 6.65961 78.8168C5.96358 79.4844 5.12552 79.8182 4.1454 79.8182Z" fill="black"/>
<path d="M20.8553 98.3125V118H15.8269V85.2727H20.6848V90.3864H21.111C21.878 88.7244 23.0428 87.3892 24.6053 86.3807C26.1678 85.358 28.1848 84.8466 30.6564 84.8466C32.8723 84.8466 34.8112 85.3011 36.4732 86.2102C38.1351 87.1051 39.4277 88.4687 40.351 90.3011C41.2743 92.1193 41.736 94.4205 41.736 97.2045V118H36.7076V97.5455C36.7076 94.9744 36.0399 92.9716 34.7047 91.5369C33.3695 90.0881 31.5371 89.3636 29.2075 89.3636C27.6024 89.3636 26.1678 89.7116 24.9036 90.4077C23.6536 91.1037 22.6664 92.1193 21.9419 93.4545C21.2175 94.7898 20.8553 96.4091 20.8553 98.3125Z" fill="black"/>
<path d="M64.22 118.682C61.1518 118.682 58.5097 117.957 56.2938 116.509C54.0779 115.06 52.3734 113.064 51.1802 110.521C49.987 107.979 49.3904 105.074 49.3904 101.807C49.3904 98.483 50.0012 95.5497 51.2228 93.0071C52.4586 90.4503 54.1774 88.4545 56.3791 87.0199C58.595 85.571 61.1802 84.8466 64.1348 84.8466C66.4359 84.8466 68.5097 85.2727 70.3563 86.125C72.2029 86.9773 73.7157 88.1705 74.8947 89.7045C76.0737 91.2386 76.8052 93.0284 77.0893 95.0739H72.0609C71.6774 93.5824 70.8251 92.2614 69.5041 91.1108C68.1972 89.946 66.4359 89.3636 64.22 89.3636C62.2598 89.3636 60.541 89.875 59.0637 90.8977C57.6007 91.9063 56.4572 93.3338 55.6333 95.1804C54.8237 97.0128 54.4188 99.1648 54.4188 101.636C54.4188 104.165 54.8166 106.366 55.612 108.241C56.4217 110.116 57.558 111.572 59.0211 112.609C60.4984 113.646 62.2313 114.165 64.22 114.165C65.5268 114.165 66.7129 113.938 67.7782 113.483C68.8436 113.028 69.7455 112.375 70.4842 111.523C71.2228 110.67 71.7484 109.648 72.0609 108.455H77.0893C76.8052 110.386 76.1021 112.126 74.9799 113.675C73.872 115.209 72.4018 116.43 70.5694 117.339C68.7512 118.234 66.6348 118.682 64.22 118.682Z" fill="black"/>
<path d="M98.1617 118.682C95.0083 118.682 92.2882 117.986 90.0012 116.594C87.7285 115.188 85.9742 113.227 84.7384 110.713C83.5169 108.185 82.9061 105.244 82.9061 101.892C82.9061 98.5398 83.5169 95.5852 84.7384 93.0284C85.9742 90.4574 87.693 88.4545 89.8947 87.0199C92.1106 85.571 94.6958 84.8466 97.6504 84.8466C99.3549 84.8466 101.038 85.1307 102.7 85.6989C104.362 86.267 105.875 87.1903 107.238 88.4688C108.602 89.733 109.689 91.4091 110.498 93.4972C111.308 95.5852 111.713 98.1563 111.713 101.21V103.341H86.4856V98.9943H106.599C106.599 97.1477 106.23 95.5 105.491 94.0511C104.767 92.6023 103.73 91.4588 102.38 90.6207C101.045 89.7827 99.4686 89.3636 97.6504 89.3636C95.6475 89.3636 93.9146 89.8608 92.4515 90.8551C91.0026 91.8352 89.8876 93.1136 89.1063 94.6903C88.3251 96.267 87.9345 97.9574 87.9345 99.7614V102.659C87.9345 105.131 88.3606 107.226 89.2129 108.945C90.0794 110.649 91.2796 111.949 92.8137 112.844C94.3478 113.724 96.1305 114.165 98.1617 114.165C99.4828 114.165 100.676 113.98 101.741 113.611C102.821 113.227 103.751 112.659 104.532 111.906C105.314 111.139 105.917 110.187 106.344 109.051L111.202 110.415C110.69 112.062 109.831 113.511 108.623 114.761C107.416 115.997 105.925 116.963 104.149 117.659C102.373 118.341 100.378 118.682 98.1617 118.682Z" fill="black"/>
<path d="M119.362 130.273V85.2727H124.22V90.4716H124.817C125.186 89.9034 125.697 89.179 126.351 88.2983C127.018 87.4034 127.97 86.608 129.206 85.9119C130.456 85.2017 132.146 84.8466 134.277 84.8466C137.032 84.8466 139.461 85.5355 141.564 86.9134C143.666 88.2912 145.307 90.2443 146.486 92.7727C147.665 95.3011 148.254 98.2841 148.254 101.722C148.254 105.187 147.665 108.192 146.486 110.734C145.307 113.263 143.673 115.223 141.585 116.615C139.497 117.993 137.089 118.682 134.362 118.682C132.26 118.682 130.577 118.334 129.312 117.638C128.048 116.928 127.075 116.125 126.393 115.23C125.711 114.321 125.186 113.568 124.817 112.972H124.39V130.273H119.362ZM124.305 101.636C124.305 104.108 124.667 106.288 125.392 108.178C126.116 110.053 127.175 111.523 128.567 112.588C129.959 113.639 131.663 114.165 133.68 114.165C135.782 114.165 137.537 113.611 138.943 112.503C140.363 111.381 141.429 109.875 142.139 107.986C142.863 106.082 143.226 103.966 143.226 101.636C143.226 99.3352 142.871 97.2614 142.16 95.4148C141.464 93.554 140.406 92.0838 138.986 91.0043C137.579 89.9105 135.811 89.3636 133.68 89.3636C131.635 89.3636 129.916 89.8821 128.524 90.919C127.132 91.9418 126.081 93.3764 125.371 95.223C124.66 97.0554 124.305 99.1932 124.305 101.636Z" fill="black"/>
<path d="M170.157 85.2727V89.5341H153.197V85.2727H170.157ZM158.14 77.4318H163.169V108.625C163.169 110.045 163.375 111.111 163.787 111.821C164.213 112.517 164.753 112.986 165.406 113.227C166.074 113.455 166.777 113.568 167.515 113.568C168.069 113.568 168.524 113.54 168.879 113.483C169.234 113.412 169.518 113.355 169.731 113.312L170.754 117.83C170.413 117.957 169.937 118.085 169.327 118.213C168.716 118.355 167.942 118.426 167.004 118.426C165.584 118.426 164.192 118.121 162.828 117.51C161.478 116.899 160.356 115.969 159.461 114.719C158.581 113.469 158.14 111.892 158.14 109.989V77.4318Z" fill="black"/>
<path d="M177.721 118V85.2727H182.75V118H177.721ZM180.278 79.8182C179.298 79.8182 178.453 79.4844 177.743 78.8168C177.047 78.1491 176.699 77.3466 176.699 76.4091C176.699 75.4716 177.047 74.669 177.743 74.0014C178.453 73.3338 179.298 73 180.278 73C181.258 73 182.096 73.3338 182.792 74.0014C183.503 74.669 183.858 75.4716 183.858 76.4091C183.858 77.3466 183.503 78.1491 182.792 78.8168C182.096 79.4844 181.258 79.8182 180.278 79.8182Z" fill="black"/>
<path d="M205.255 118.682C202.301 118.682 199.708 117.979 197.478 116.572C195.262 115.166 193.529 113.199 192.279 110.67C191.043 108.142 190.426 105.187 190.426 101.807C190.426 98.3977 191.043 95.4219 192.279 92.8793C193.529 90.3366 195.262 88.3622 197.478 86.956C199.708 85.5497 202.301 84.8466 205.255 84.8466C208.21 84.8466 210.795 85.5497 213.011 86.956C215.241 88.3622 216.974 90.3366 218.21 92.8793C219.46 95.4219 220.085 98.3977 220.085 101.807C220.085 105.187 219.46 108.142 218.21 110.67C216.974 113.199 215.241 115.166 213.011 116.572C210.795 117.979 208.21 118.682 205.255 118.682ZM205.255 114.165C207.499 114.165 209.346 113.589 210.795 112.439C212.244 111.288 213.316 109.776 214.012 107.901C214.708 106.026 215.056 103.994 215.056 101.807C215.056 99.6193 214.708 97.581 214.012 95.6918C213.316 93.8026 212.244 92.2756 210.795 91.1108C209.346 89.946 207.499 89.3636 205.255 89.3636C203.011 89.3636 201.164 89.946 199.715 91.1108C198.266 92.2756 197.194 93.8026 196.498 95.6918C195.802 97.581 195.454 99.6193 195.454 101.807C195.454 103.994 195.802 106.026 196.498 107.901C197.194 109.776 198.266 111.288 199.715 112.439C201.164 113.589 203.011 114.165 205.255 114.165Z" fill="black"/>
<path d="M232.789 98.3125V118H227.76V85.2727H232.618V90.3864H233.045C233.812 88.7244 234.976 87.3892 236.539 86.3807C238.101 85.358 240.118 84.8466 242.59 84.8466C244.806 84.8466 246.745 85.3011 248.407 86.2102C250.069 87.1051 251.361 88.4687 252.285 90.3011C253.208 92.1193 253.67 94.4205 253.67 97.2045V118H248.641V97.5455C248.641 94.9744 247.974 92.9716 246.638 91.5369C245.303 90.0881 243.471 89.3636 241.141 89.3636C239.536 89.3636 238.101 89.7116 236.837 90.4077C235.587 91.1037 234.6 92.1193 233.876 93.4545C233.151 94.7898 232.789 96.4091 232.789 98.3125Z" fill="black"/>
<path d="M293.029 118.682C290.074 118.682 287.482 117.979 285.252 116.572C283.036 115.166 281.303 113.199 280.053 110.67C278.817 108.142 278.199 105.187 278.199 101.807C278.199 98.3977 278.817 95.4219 280.053 92.8793C281.303 90.3366 283.036 88.3622 285.252 86.956C287.482 85.5497 290.074 84.8466 293.029 84.8466C295.983 84.8466 298.568 85.5497 300.784 86.956C303.014 88.3622 304.747 90.3366 305.983 92.8793C307.233 95.4219 307.858 98.3977 307.858 101.807C307.858 105.187 307.233 108.142 305.983 110.67C304.747 113.199 303.014 115.166 300.784 116.572C298.568 117.979 295.983 118.682 293.029 118.682ZM293.029 114.165C295.273 114.165 297.119 113.589 298.568 112.439C300.017 111.288 301.09 109.776 301.786 107.901C302.482 106.026 302.83 103.994 302.83 101.807C302.83 99.6193 302.482 97.581 301.786 95.6918C301.09 93.8026 300.017 92.2756 298.568 91.1108C297.119 89.946 295.273 89.3636 293.029 89.3636C290.784 89.3636 288.938 89.946 287.489 91.1108C286.04 92.2756 284.967 93.8026 284.271 95.6918C283.575 97.581 283.227 99.6193 283.227 101.807C283.227 103.994 283.575 106.026 284.271 107.901C284.967 109.776 286.04 111.288 287.489 112.439C288.938 113.589 290.784 114.165 293.029 114.165Z" fill="black"/>
<path d="M330.108 85.2727V89.5341H312.466V85.2727H330.108ZM317.75 118V80.7557C317.75 78.8807 318.19 77.3182 319.071 76.0682C319.952 74.8182 321.095 73.8807 322.501 73.2557C323.907 72.6307 325.392 72.3182 326.954 72.3182C328.19 72.3182 329.199 72.4176 329.98 72.6165C330.761 72.8153 331.344 73 331.727 73.1705L330.278 77.517C330.023 77.4318 329.667 77.3253 329.213 77.1974C328.773 77.0696 328.19 77.0057 327.466 77.0057C325.804 77.0057 324.604 77.4247 323.865 78.2628C323.14 79.1009 322.778 80.3295 322.778 81.9489V118H317.75Z" fill="black"/>
<path d="M354.03 118V85.2727H359.058V118H354.03ZM356.587 79.8182C355.607 79.8182 354.762 79.4844 354.051 78.8168C353.355 78.1491 353.007 77.3466 353.007 76.4091C353.007 75.4716 353.355 74.669 354.051 74.0014C354.762 73.3338 355.607 73 356.587 73C357.567 73 358.405 73.3338 359.101 74.0014C359.811 74.669 360.166 75.4716 360.166 76.4091C360.166 77.3466 359.811 78.1491 359.101 78.8168C358.405 79.4844 357.567 79.8182 356.587 79.8182Z" fill="black"/>
<path d="M380.626 118.682C377.899 118.682 375.491 117.993 373.403 116.615C371.315 115.223 369.682 113.263 368.503 110.734C367.324 108.192 366.734 105.187 366.734 101.722C366.734 98.2841 367.324 95.3011 368.503 92.7727C369.682 90.2443 371.322 88.2912 373.425 86.9134C375.527 85.5355 377.956 84.8466 380.711 84.8466C382.842 84.8466 384.525 85.2017 385.761 85.9119C387.011 86.608 387.963 87.4034 388.616 88.2983C389.284 89.179 389.802 89.9034 390.172 90.4716H390.598V74.3636H395.626V118H390.768V112.972H390.172C389.802 113.568 389.277 114.321 388.595 115.23C387.913 116.125 386.94 116.928 385.676 117.638C384.412 118.334 382.728 118.682 380.626 118.682ZM381.308 114.165C383.325 114.165 385.03 113.639 386.422 112.588C387.814 111.523 388.872 110.053 389.596 108.178C390.321 106.288 390.683 104.108 390.683 101.636C390.683 99.1932 390.328 97.0554 389.618 95.223C388.907 93.3764 387.856 91.9418 386.464 90.919C385.072 89.8821 383.353 89.3636 381.308 89.3636C379.177 89.3636 377.402 89.9105 375.981 91.0043C374.575 92.0838 373.517 93.554 372.807 95.4148C372.111 97.2614 371.763 99.3352 371.763 101.636C371.763 103.966 372.118 106.082 372.828 107.986C373.552 109.875 374.618 111.381 376.024 112.503C377.444 113.611 379.206 114.165 381.308 114.165Z" fill="black"/>
<path d="M419.255 118.682C416.102 118.682 413.382 117.986 411.095 116.594C408.822 115.188 407.068 113.227 405.832 110.713C404.611 108.185 404 105.244 404 101.892C404 98.5398 404.611 95.5852 405.832 93.0284C407.068 90.4574 408.787 88.4545 410.988 87.0199C413.204 85.571 415.79 84.8466 418.744 84.8466C420.449 84.8466 422.132 85.1307 423.794 85.6989C425.456 86.267 426.969 87.1903 428.332 88.4688C429.696 89.733 430.782 91.4091 431.592 93.4972C432.402 95.5852 432.807 98.1563 432.807 101.21V103.341H407.579V98.9943H427.693C427.693 97.1477 427.324 95.5 426.585 94.0511C425.861 92.6023 424.824 91.4588 423.474 90.6207C422.139 89.7827 420.562 89.3636 418.744 89.3636C416.741 89.3636 415.008 89.8608 413.545 90.8551C412.096 91.8352 410.981 93.1136 410.2 94.6903C409.419 96.267 409.028 97.9574 409.028 99.7614V102.659C409.028 105.131 409.454 107.226 410.307 108.945C411.173 110.649 412.373 111.949 413.907 112.844C415.442 113.724 417.224 114.165 419.255 114.165C420.577 114.165 421.77 113.98 422.835 113.611C423.915 113.227 424.845 112.659 425.626 111.906C426.407 111.139 427.011 110.187 427.437 109.051L432.295 110.415C431.784 112.062 430.925 113.511 429.717 114.761C428.51 115.997 427.018 116.963 425.243 117.659C423.467 118.341 421.471 118.682 419.255 118.682Z" fill="black"/>
<path d="M450.086 118.767C448.013 118.767 446.13 118.376 444.44 117.595C442.75 116.8 441.407 115.656 440.413 114.165C439.419 112.659 438.922 110.841 438.922 108.71C438.922 106.835 439.291 105.315 440.03 104.151C440.768 102.972 441.755 102.048 442.991 101.381C444.227 100.713 445.591 100.216 447.082 99.8892C448.588 99.5483 450.101 99.2784 451.621 99.0795C453.609 98.8239 455.221 98.6321 456.457 98.5043C457.707 98.3622 458.616 98.1278 459.184 97.8011C459.767 97.4744 460.058 96.9062 460.058 96.0966V95.9261C460.058 93.8239 459.483 92.1903 458.332 91.0256C457.196 89.8608 455.47 89.2784 453.155 89.2784C450.754 89.2784 448.872 89.804 447.508 90.8551C446.145 91.9062 445.186 93.0284 444.632 94.2216L439.859 92.517C440.711 90.5284 441.848 88.9801 443.268 87.8722C444.703 86.75 446.265 85.9688 447.956 85.5284C449.66 85.0739 451.336 84.8466 452.984 84.8466C454.035 84.8466 455.243 84.9744 456.606 85.2301C457.984 85.4716 459.312 85.9759 460.591 86.7429C461.883 87.5099 462.956 88.6676 463.808 90.2159C464.66 91.7642 465.086 93.8381 465.086 96.4375V118H460.058V113.568H459.802C459.461 114.278 458.893 115.038 458.098 115.848C457.302 116.658 456.244 117.347 454.923 117.915C453.602 118.483 451.99 118.767 450.086 118.767ZM450.853 114.25C452.842 114.25 454.518 113.859 455.882 113.078C457.26 112.297 458.297 111.288 458.993 110.053C459.703 108.817 460.058 107.517 460.058 106.153V101.551C459.845 101.807 459.376 102.041 458.652 102.254C457.942 102.453 457.118 102.631 456.18 102.787C455.257 102.929 454.355 103.057 453.474 103.17C452.608 103.27 451.905 103.355 451.365 103.426C450.058 103.597 448.836 103.874 447.7 104.257C446.578 104.626 445.669 105.187 444.973 105.94C444.291 106.679 443.95 107.688 443.95 108.966C443.95 110.713 444.596 112.034 445.889 112.929C447.196 113.81 448.851 114.25 450.853 114.25Z" fill="black"/>
<path d="M505.372 85.2727V89.5341H488.412V85.2727H505.372ZM493.355 77.4318H498.384V108.625C498.384 110.045 498.59 111.111 499.002 111.821C499.428 112.517 499.968 112.986 500.621 113.227C501.289 113.455 501.992 113.568 502.73 113.568C503.284 113.568 503.739 113.54 504.094 113.483C504.449 113.412 504.733 113.355 504.946 113.312L505.969 117.83C505.628 117.957 505.152 118.085 504.541 118.213C503.931 118.355 503.156 118.426 502.219 118.426C500.798 118.426 499.406 118.121 498.043 117.51C496.693 116.899 495.571 115.969 494.676 114.719C493.796 113.469 493.355 111.892 493.355 109.989V77.4318Z" fill="black"/>
<path d="M525.88 118.682C522.926 118.682 520.333 117.979 518.103 116.572C515.887 115.166 514.154 113.199 512.904 110.67C511.669 108.142 511.051 105.187 511.051 101.807C511.051 98.3977 511.669 95.4219 512.904 92.8793C514.154 90.3366 515.887 88.3622 518.103 86.956C520.333 85.5497 522.926 84.8466 525.88 84.8466C528.835 84.8466 531.42 85.5497 533.636 86.956C535.866 88.3622 537.599 90.3366 538.835 92.8793C540.085 95.4219 540.71 98.3977 540.71 101.807C540.71 105.187 540.085 108.142 538.835 110.67C537.599 113.199 535.866 115.166 533.636 116.572C531.42 117.979 528.835 118.682 525.88 118.682ZM525.88 114.165C528.124 114.165 529.971 113.589 531.42 112.439C532.869 111.288 533.941 109.776 534.637 107.901C535.333 106.026 535.681 103.994 535.681 101.807C535.681 99.6193 535.333 97.581 534.637 95.6918C533.941 93.8026 532.869 92.2756 531.42 91.1108C529.971 89.946 528.124 89.3636 525.88 89.3636C523.636 89.3636 521.789 89.946 520.34 91.1108C518.891 92.2756 517.819 93.8026 517.123 95.6918C516.427 97.581 516.079 99.6193 516.079 101.807C516.079 103.994 516.427 106.026 517.123 107.901C517.819 109.776 518.891 111.288 520.34 112.439C521.789 113.589 523.636 114.165 525.88 114.165Z" fill="black"/>
<path d="M570.289 98.3125V118H565.26V74.3636H570.289V90.3864H570.715C571.482 88.696 572.633 87.3537 574.167 86.3594C575.715 85.3509 577.775 84.8466 580.346 84.8466C582.576 84.8466 584.529 85.294 586.205 86.1889C587.881 87.0696 589.181 88.4261 590.104 90.2585C591.042 92.0767 591.51 94.392 591.51 97.2045V118H586.482V97.5455C586.482 94.946 585.807 92.9361 584.458 91.5156C583.123 90.081 581.269 89.3636 578.897 89.3636C577.249 89.3636 575.772 89.7116 574.465 90.4077C573.172 91.1037 572.15 92.1193 571.397 93.4545C570.658 94.7898 570.289 96.4091 570.289 98.3125Z" fill="black"/>
<path d="M610.34 118.767C608.266 118.767 606.384 118.376 604.694 117.595C603.004 116.8 601.661 115.656 600.667 114.165C599.673 112.659 599.176 110.841 599.176 108.71C599.176 106.835 599.545 105.315 600.284 104.151C601.022 102.972 602.009 102.048 603.245 101.381C604.481 100.713 605.845 100.216 607.336 99.8892C608.842 99.5483 610.355 99.2784 611.874 99.0795C613.863 98.8239 615.475 98.6321 616.711 98.5043C617.961 98.3622 618.87 98.1278 619.438 97.8011C620.021 97.4744 620.312 96.9062 620.312 96.0966V95.9261C620.312 93.8239 619.737 92.1903 618.586 91.0256C617.45 89.8608 615.724 89.2784 613.409 89.2784C611.008 89.2784 609.126 89.804 607.762 90.8551C606.399 91.9062 605.44 93.0284 604.886 94.2216L600.113 92.517C600.965 90.5284 602.102 88.9801 603.522 87.8722C604.957 86.75 606.519 85.9688 608.21 85.5284C609.914 85.0739 611.59 84.8466 613.238 84.8466C614.289 84.8466 615.497 84.9744 616.86 85.2301C618.238 85.4716 619.566 85.9759 620.845 86.7429C622.137 87.5099 623.21 88.6676 624.062 90.2159C624.914 91.7642 625.34 93.8381 625.34 96.4375V118H620.312V113.568H620.056C619.715 114.278 619.147 115.038 618.352 115.848C617.556 116.658 616.498 117.347 615.177 117.915C613.856 118.483 612.244 118.767 610.34 118.767ZM611.107 114.25C613.096 114.25 614.772 113.859 616.136 113.078C617.514 112.297 618.551 111.288 619.247 110.053C619.957 108.817 620.312 107.517 620.312 106.153V101.551C620.099 101.807 619.63 102.041 618.906 102.254C618.195 102.453 617.372 102.631 616.434 102.787C615.511 102.929 614.609 103.057 613.728 103.17C612.862 103.27 612.159 103.355 611.619 103.426C610.312 103.597 609.09 103.874 607.954 104.257C606.832 104.626 605.923 105.187 605.227 105.94C604.545 106.679 604.204 107.688 604.204 108.966C604.204 110.713 604.85 112.034 606.143 112.929C607.45 113.81 609.105 114.25 611.107 114.25Z" fill="black"/>
<path d="M639.547 98.3125V118H634.518V85.2727H639.376V90.3864H639.802C640.569 88.7244 641.734 87.3892 643.297 86.3807C644.859 85.358 646.876 84.8466 649.348 84.8466C651.564 84.8466 653.503 85.3011 655.165 86.2102C656.826 87.1051 658.119 88.4687 659.042 90.3011C659.966 92.1193 660.427 94.4205 660.427 97.2045V118H655.399V97.5455C655.399 94.9744 654.731 92.9716 653.396 91.5369C652.061 90.0881 650.228 89.3636 647.899 89.3636C646.294 89.3636 644.859 89.7116 643.595 90.4077C642.345 91.1037 641.358 92.1193 640.633 93.4545C639.909 94.7898 639.547 96.4091 639.547 98.3125Z" fill="black"/>
<path d="M681.974 118.682C679.247 118.682 676.839 117.993 674.751 116.615C672.663 115.223 671.029 113.263 669.85 110.734C668.671 108.192 668.082 105.187 668.082 101.722C668.082 98.2841 668.671 95.3011 669.85 92.7727C671.029 90.2443 672.67 88.2912 674.772 86.9134C676.874 85.5355 679.303 84.8466 682.059 84.8466C684.19 84.8466 685.873 85.2017 687.109 85.9119C688.359 86.608 689.311 87.4034 689.964 88.2983C690.632 89.179 691.15 89.9034 691.519 90.4716H691.945V74.3636H696.974V118H692.116V112.972H691.519C691.15 113.568 690.624 114.321 689.943 115.23C689.261 116.125 688.288 116.928 687.024 117.638C685.759 118.334 684.076 118.682 681.974 118.682ZM682.656 114.165C684.673 114.165 686.377 113.639 687.769 112.588C689.161 111.523 690.22 110.053 690.944 108.178C691.668 106.288 692.031 104.108 692.031 101.636C692.031 99.1932 691.676 97.0554 690.965 95.223C690.255 93.3764 689.204 91.9418 687.812 90.919C686.42 89.8821 684.701 89.3636 682.656 89.3636C680.525 89.3636 678.749 89.9105 677.329 91.0043C675.923 92.0838 674.865 93.554 674.154 95.4148C673.458 97.2614 673.11 99.3352 673.11 101.636C673.11 103.966 673.465 106.082 674.176 107.986C674.9 109.875 675.965 111.381 677.372 112.503C678.792 113.611 680.553 114.165 682.656 114.165Z" fill="black"/>
<path d="M706.882 118V85.2727H711.91V118H706.882ZM709.438 79.8182C708.458 79.8182 707.613 79.4844 706.903 78.8168C706.207 78.1491 705.859 77.3466 705.859 76.4091C705.859 75.4716 706.207 74.669 706.903 74.0014C707.613 73.3338 708.458 73 709.438 73C710.418 73 711.257 73.3338 711.953 74.0014C712.663 74.669 713.018 75.4716 713.018 76.4091C713.018 77.3466 712.663 78.1491 711.953 78.8168C711.257 79.4844 710.418 79.8182 709.438 79.8182Z" fill="black"/>
<path d="M726.148 98.3125V118H721.12V85.2727H725.978V90.3864H726.404C727.171 88.7244 728.336 87.3892 729.898 86.3807C731.461 85.358 733.478 84.8466 735.949 84.8466C738.165 84.8466 740.104 85.3011 741.766 86.2102C743.428 87.1051 744.721 88.4687 745.644 90.3011C746.567 92.1193 747.029 94.4205 747.029 97.2045V118H742V97.5455C742 94.9744 741.333 92.9716 739.998 91.5369C738.662 90.0881 736.83 89.3636 734.5 89.3636C732.895 89.3636 731.461 89.7116 730.197 90.4077C728.947 91.1037 727.959 92.1193 727.235 93.4545C726.51 94.7898 726.148 96.4091 726.148 98.3125Z" fill="black"/>
<path d="M769.428 130.955C766.999 130.955 764.911 130.642 763.164 130.017C761.416 129.406 759.96 128.597 758.796 127.588C757.645 126.594 756.729 125.528 756.047 124.392L760.053 121.58C760.507 122.176 761.083 122.858 761.779 123.625C762.475 124.406 763.426 125.081 764.634 125.649C765.855 126.232 767.453 126.523 769.428 126.523C772.07 126.523 774.25 125.884 775.969 124.605C777.688 123.327 778.547 121.324 778.547 118.597V111.949H778.121C777.752 112.545 777.226 113.284 776.544 114.165C775.877 115.031 774.911 115.805 773.646 116.487C772.396 117.155 770.706 117.489 768.575 117.489C765.933 117.489 763.561 116.864 761.459 115.614C759.371 114.364 757.716 112.545 756.495 110.159C755.287 107.773 754.683 104.875 754.683 101.466C754.683 98.1136 755.273 95.1946 756.452 92.7088C757.631 90.2088 759.271 88.277 761.374 86.9134C763.476 85.5355 765.905 84.8466 768.661 84.8466C770.791 84.8466 772.482 85.2017 773.732 85.9119C774.996 86.608 775.962 87.4034 776.629 88.2983C777.311 89.179 777.837 89.9034 778.206 90.4716H778.717V85.2727H783.575V118.938C783.575 121.75 782.936 124.037 781.658 125.798C780.394 127.574 778.689 128.874 776.544 129.697C774.414 130.536 772.041 130.955 769.428 130.955ZM769.257 112.972C771.274 112.972 772.979 112.51 774.371 111.587C775.763 110.663 776.821 109.335 777.546 107.602C778.27 105.869 778.632 103.795 778.632 101.381C778.632 99.0227 778.277 96.9418 777.567 95.1378C776.857 93.3338 775.806 91.9205 774.414 90.8977C773.021 89.875 771.303 89.3636 769.257 89.3636C767.127 89.3636 765.351 89.9034 763.931 90.983C762.524 92.0625 761.466 93.5114 760.756 95.3295C760.06 97.1477 759.712 99.1648 759.712 101.381C759.712 103.653 760.067 105.663 760.777 107.411C761.502 109.143 762.567 110.507 763.973 111.501C765.394 112.482 767.155 112.972 769.257 112.972Z" fill="black"/>
<path d="M822.95 118.682C819.996 118.682 817.404 117.979 815.173 116.572C812.958 115.166 811.225 113.199 809.975 110.67C808.739 108.142 808.121 105.187 808.121 101.807C808.121 98.3977 808.739 95.4219 809.975 92.8793C811.225 90.3366 812.958 88.3622 815.173 86.956C817.404 85.5497 819.996 84.8466 822.95 84.8466C825.905 84.8466 828.49 85.5497 830.706 86.956C832.936 88.3622 834.669 90.3366 835.905 92.8793C837.155 95.4219 837.78 98.3977 837.78 101.807C837.78 105.187 837.155 108.142 835.905 110.67C834.669 113.199 832.936 115.166 830.706 116.572C828.49 117.979 825.905 118.682 822.95 118.682ZM822.95 114.165C825.195 114.165 827.041 113.589 828.49 112.439C829.939 111.288 831.011 109.776 831.708 107.901C832.404 106.026 832.752 103.994 832.752 101.807C832.752 99.6193 832.404 97.581 831.708 95.6918C831.011 93.8026 829.939 92.2756 828.49 91.1108C827.041 89.946 825.195 89.3636 822.95 89.3636C820.706 89.3636 818.86 89.946 817.411 91.1108C815.962 92.2756 814.889 93.8026 814.193 95.6918C813.497 97.581 813.149 99.6193 813.149 101.807C813.149 103.994 813.497 106.026 814.193 107.901C814.889 109.776 815.962 111.288 817.411 112.439C818.86 113.589 820.706 114.165 822.95 114.165Z" fill="black"/>
<path d="M871.045 85.2727L858.943 118H853.829L841.727 85.2727H847.182L856.216 111.352H856.557L865.591 85.2727H871.045Z" fill="black"/>
<path d="M890.232 118.682C887.079 118.682 884.358 117.986 882.072 116.594C879.799 115.188 878.045 113.227 876.809 110.713C875.587 108.185 874.976 105.244 874.976 101.892C874.976 98.5398 875.587 95.5852 876.809 93.0284C878.045 90.4574 879.763 88.4545 881.965 87.0199C884.181 85.571 886.766 84.8466 889.721 84.8466C891.425 84.8466 893.108 85.1307 894.77 85.6989C896.432 86.267 897.945 87.1903 899.309 88.4688C900.672 89.733 901.759 91.4091 902.569 93.4972C903.378 95.5852 903.783 98.1563 903.783 101.21V103.341H878.556V98.9943H898.67C898.67 97.1477 898.3 95.5 897.562 94.0511C896.837 92.6023 895.8 91.4588 894.451 90.6207C893.116 89.7827 891.539 89.3636 889.721 89.3636C887.718 89.3636 885.985 89.8608 884.522 90.8551C883.073 91.8352 881.958 93.1136 881.177 94.6903C880.395 96.267 880.005 97.9574 880.005 99.7614V102.659C880.005 105.131 880.431 107.226 881.283 108.945C882.15 110.649 883.35 111.949 884.884 112.844C886.418 113.724 888.201 114.165 890.232 114.165C891.553 114.165 892.746 113.98 893.812 113.611C894.891 113.227 895.822 112.659 896.603 111.906C897.384 111.139 897.988 110.187 898.414 109.051L903.272 110.415C902.76 112.062 901.901 113.511 900.694 114.761C899.486 115.997 897.995 116.963 896.219 117.659C894.444 118.341 892.448 118.682 890.232 118.682Z" fill="black"/>
<path d="M911.432 118V85.2727H916.29V90.2159H916.631C917.228 88.5966 918.307 87.2827 919.87 86.2741C921.432 85.2656 923.194 84.7614 925.154 84.7614C925.523 84.7614 925.985 84.7685 926.539 84.7827C927.093 84.7969 927.512 84.8182 927.796 84.8466V89.9602C927.626 89.9176 927.235 89.8537 926.624 89.7685C926.027 89.669 925.395 89.6193 924.728 89.6193C923.137 89.6193 921.716 89.9531 920.466 90.6207C919.231 91.2741 918.25 92.1832 917.526 93.348C916.816 94.4986 916.461 95.8125 916.461 97.2898V118H911.432Z" fill="black"/>
<path d="M963.927 118.682C960.972 118.682 958.38 117.979 956.15 116.572C953.934 115.166 952.201 113.199 950.951 110.67C949.715 108.142 949.097 105.187 949.097 101.807C949.097 98.3977 949.715 95.4219 950.951 92.8793C952.201 90.3366 953.934 88.3622 956.15 86.956C958.38 85.5497 960.972 84.8466 963.927 84.8466C966.882 84.8466 969.467 85.5497 971.683 86.956C973.913 88.3622 975.646 90.3366 976.882 92.8793C978.132 95.4219 978.757 98.3977 978.757 101.807C978.757 105.187 978.132 108.142 976.882 110.67C975.646 113.199 973.913 115.166 971.683 116.572C969.467 117.979 966.882 118.682 963.927 118.682ZM963.927 114.165C966.171 114.165 968.018 113.589 969.467 112.439C970.916 111.288 971.988 109.776 972.684 107.901C973.38 106.026 973.728 103.994 973.728 101.807C973.728 99.6193 973.38 97.581 972.684 95.6918C971.988 93.8026 970.916 92.2756 969.467 91.1108C968.018 89.946 966.171 89.3636 963.927 89.3636C961.683 89.3636 959.836 89.946 958.387 91.1108C956.938 92.2756 955.866 93.8026 955.17 95.6918C954.474 97.581 954.126 99.6193 954.126 101.807C954.126 103.994 954.474 106.026 955.17 107.901C955.866 109.776 956.938 111.288 958.387 112.439C959.836 113.589 961.683 114.165 963.927 114.165Z" fill="black"/>
<path d="M1001.01 85.2727V89.5341H983.364V85.2727H1001.01ZM988.648 118V80.7557C988.648 78.8807 989.089 77.3182 989.969 76.0682C990.85 74.8182 991.993 73.8807 993.4 73.2557C994.806 72.6307 996.29 72.3182 997.853 72.3182C999.089 72.3182 1000.1 72.4176 1000.88 72.6165C1001.66 72.8153 1002.24 73 1002.63 73.1705L1001.18 77.517C1000.92 77.4318 1000.57 77.3253 1000.11 77.1974C999.671 77.0696 999.089 77.0057 998.364 77.0057C996.702 77.0057 995.502 77.4247 994.763 78.2628C994.039 79.1009 993.677 80.3295 993.677 81.9489V118H988.648Z" fill="black"/>
<path d="M1024.93 130.273V85.2727H1029.79V90.4716H1030.38C1030.75 89.9034 1031.26 89.179 1031.92 88.2983C1032.58 87.4034 1033.54 86.608 1034.77 85.9119C1036.02 85.2017 1037.71 84.8466 1039.84 84.8466C1042.6 84.8466 1045.03 85.5355 1047.13 86.9134C1049.23 88.2912 1050.87 90.2443 1052.05 92.7727C1053.23 95.3011 1053.82 98.2841 1053.82 101.722C1053.82 105.187 1053.23 108.192 1052.05 110.734C1050.87 113.263 1049.24 115.223 1047.15 116.615C1045.06 117.993 1042.66 118.682 1039.93 118.682C1037.83 118.682 1036.14 118.334 1034.88 117.638C1033.61 116.928 1032.64 116.125 1031.96 115.23C1031.28 114.321 1030.75 113.568 1030.38 112.972H1029.96V130.273H1024.93ZM1029.87 101.636C1029.87 104.108 1030.23 106.288 1030.96 108.178C1031.68 110.053 1032.74 111.523 1034.13 112.588C1035.53 113.639 1037.23 114.165 1039.25 114.165C1041.35 114.165 1043.1 113.611 1044.51 112.503C1045.93 111.381 1047 109.875 1047.71 107.986C1048.43 106.082 1048.79 103.966 1048.79 101.636C1048.79 99.3352 1048.44 97.2614 1047.73 95.4148C1047.03 93.554 1045.97 92.0838 1044.55 91.0043C1043.15 89.9105 1041.38 89.3636 1039.25 89.3636C1037.2 89.3636 1035.48 89.8821 1034.09 90.919C1032.7 91.9418 1031.65 93.3764 1030.94 95.223C1030.23 97.0554 1029.87 99.1932 1029.87 101.636Z" fill="black"/>
<path d="M1061.49 118V85.2727H1066.35V90.2159H1066.69C1067.29 88.5966 1068.37 87.2827 1069.93 86.2741C1071.49 85.2656 1073.25 84.7614 1075.21 84.7614C1075.58 84.7614 1076.04 84.7685 1076.6 84.7827C1077.15 84.7969 1077.57 84.8182 1077.85 84.8466V89.9602C1077.68 89.9176 1077.29 89.8537 1076.68 89.7685C1076.09 89.669 1075.45 89.6193 1074.79 89.6193C1073.2 89.6193 1071.77 89.9531 1070.52 90.6207C1069.29 91.2741 1068.31 92.1832 1067.58 93.348C1066.87 94.4986 1066.52 95.8125 1066.52 97.2898V118H1061.49Z" fill="black"/>
<path d="M1096.11 118.682C1093.16 118.682 1090.57 117.979 1088.34 116.572C1086.12 115.166 1084.39 113.199 1083.14 110.67C1081.9 108.142 1081.28 105.187 1081.28 101.807C1081.28 98.3977 1081.9 95.4219 1083.14 92.8793C1084.39 90.3366 1086.12 88.3622 1088.34 86.956C1090.57 85.5497 1093.16 84.8466 1096.11 84.8466C1099.07 84.8466 1101.65 85.5497 1103.87 86.956C1106.1 88.3622 1107.83 90.3366 1109.07 92.8793C1110.32 95.4219 1110.94 98.3977 1110.94 101.807C1110.94 105.187 1110.32 108.142 1109.07 110.67C1107.83 113.199 1106.1 115.166 1103.87 116.572C1101.65 117.979 1099.07 118.682 1096.11 118.682ZM1096.11 114.165C1098.36 114.165 1100.21 113.589 1101.65 112.439C1103.1 111.288 1104.18 109.776 1104.87 107.901C1105.57 106.026 1105.92 103.994 1105.92 101.807C1105.92 99.6193 1105.57 97.581 1104.87 95.6918C1104.18 93.8026 1103.1 92.2756 1101.65 91.1108C1100.21 89.946 1098.36 89.3636 1096.11 89.3636C1093.87 89.3636 1092.02 89.946 1090.57 91.1108C1089.13 92.2756 1088.05 93.8026 1087.36 95.6918C1086.66 97.581 1086.31 99.6193 1086.31 101.807C1086.31 103.994 1086.66 106.026 1087.36 107.901C1088.05 109.776 1089.13 111.288 1090.57 112.439C1092.02 113.589 1093.87 114.165 1096.11 114.165Z" fill="black"/>
<path d="M1118.62 85.2727H1123.65V120.386C1123.65 122.403 1123.3 124.151 1122.6 125.628C1121.92 127.105 1120.89 128.249 1119.49 129.058C1118.12 129.868 1116.38 130.273 1114.27 130.273C1114.1 130.273 1113.93 130.273 1113.76 130.273C1113.59 130.273 1113.42 130.273 1113.25 130.273V125.585C1113.42 125.585 1113.58 125.585 1113.72 125.585C1113.86 125.585 1114.02 125.585 1114.19 125.585C1115.72 125.585 1116.84 125.131 1117.55 124.222C1118.26 123.327 1118.62 122.048 1118.62 120.386V85.2727ZM1121.09 79.8182C1120.11 79.8182 1119.27 79.4844 1118.56 78.8168C1117.86 78.1491 1117.51 77.3466 1117.51 76.4091C1117.51 75.4716 1117.86 74.669 1118.56 74.0014C1119.27 73.3338 1120.11 73 1121.09 73C1122.07 73 1122.91 73.3338 1123.61 74.0014C1124.32 74.669 1124.67 75.4716 1124.67 76.4091C1124.67 77.3466 1124.32 78.1491 1123.61 78.8168C1122.91 79.4844 1122.07 79.8182 1121.09 79.8182Z" fill="black"/>
<path d="M1146.58 118.682C1143.43 118.682 1140.71 117.986 1138.42 116.594C1136.15 115.188 1134.39 113.227 1133.16 110.713C1131.93 108.185 1131.32 105.244 1131.32 101.892C1131.32 98.5398 1131.93 95.5852 1133.16 93.0284C1134.39 90.4574 1136.11 88.4545 1138.31 87.0199C1140.53 85.571 1143.11 84.8466 1146.07 84.8466C1147.77 84.8466 1149.46 85.1307 1151.12 85.6989C1152.78 86.267 1154.29 87.1903 1155.66 88.4688C1157.02 89.733 1158.11 91.4091 1158.92 93.4972C1159.73 95.5852 1160.13 98.1563 1160.13 101.21V103.341H1134.9V98.9943H1155.02C1155.02 97.1477 1154.65 95.5 1153.91 94.0511C1153.18 92.6023 1152.15 91.4588 1150.8 90.6207C1149.46 89.7827 1147.89 89.3636 1146.07 89.3636C1144.07 89.3636 1142.33 89.8608 1140.87 90.8551C1139.42 91.8352 1138.31 93.1136 1137.52 94.6903C1136.74 96.267 1136.35 97.9574 1136.35 99.7614V102.659C1136.35 105.131 1136.78 107.226 1137.63 108.945C1138.5 110.649 1139.7 111.949 1141.23 112.844C1142.77 113.724 1144.55 114.165 1146.58 114.165C1147.9 114.165 1149.09 113.98 1150.16 113.611C1151.24 113.227 1152.17 112.659 1152.95 111.906C1153.73 111.139 1154.34 110.187 1154.76 109.051L1159.62 110.415C1159.11 112.062 1158.25 113.511 1157.04 114.761C1155.83 115.997 1154.34 116.963 1152.57 117.659C1150.79 118.341 1148.8 118.682 1146.58 118.682Z" fill="black"/>
<path d="M1181.08 118.682C1178.01 118.682 1175.37 117.957 1173.15 116.509C1170.93 115.06 1169.23 113.064 1168.04 110.521C1166.84 107.979 1166.25 105.074 1166.25 101.807C1166.25 98.483 1166.86 95.5497 1168.08 93.0071C1169.31 90.4503 1171.03 88.4545 1173.23 87.0199C1175.45 85.571 1178.04 84.8466 1180.99 84.8466C1183.29 84.8466 1185.37 85.2727 1187.21 86.125C1189.06 86.9773 1190.57 88.1705 1191.75 89.7045C1192.93 91.2386 1193.66 93.0284 1193.94 95.0739H1188.92C1188.53 93.5824 1187.68 92.2614 1186.36 91.1108C1185.05 89.946 1183.29 89.3636 1181.08 89.3636C1179.12 89.3636 1177.4 89.875 1175.92 90.8977C1174.46 91.9063 1173.31 93.3338 1172.49 95.1804C1171.68 97.0128 1171.27 99.1648 1171.27 101.636C1171.27 104.165 1171.67 106.366 1172.47 108.241C1173.28 110.116 1174.41 111.572 1175.88 112.609C1177.35 113.646 1179.09 114.165 1181.08 114.165C1182.38 114.165 1183.57 113.938 1184.63 113.483C1185.7 113.028 1186.6 112.375 1187.34 111.523C1188.08 110.67 1188.6 109.648 1188.92 108.455H1193.94C1193.66 110.386 1192.96 112.126 1191.84 113.675C1190.73 115.209 1189.26 116.43 1187.42 117.339C1185.61 118.234 1183.49 118.682 1181.08 118.682Z" fill="black"/>
<path d="M1215.53 85.2727V89.5341H1198.57V85.2727H1215.53ZM1203.51 77.4318H1208.54V108.625C1208.54 110.045 1208.75 111.111 1209.16 111.821C1209.58 112.517 1210.12 112.986 1210.78 113.227C1211.44 113.455 1212.15 113.568 1212.89 113.568C1213.44 113.568 1213.9 113.54 1214.25 113.483C1214.61 113.412 1214.89 113.355 1215.1 113.312L1216.13 117.83C1215.78 117.957 1215.31 118.085 1214.7 118.213C1214.09 118.355 1213.31 118.426 1212.38 118.426C1210.95 118.426 1209.56 118.121 1208.2 117.51C1206.85 116.899 1205.73 115.969 1204.83 114.719C1203.95 113.469 1203.51 111.892 1203.51 109.989V77.4318Z" fill="black"/>
<path d="M1226.76 118.341C1225.71 118.341 1224.8 117.964 1224.05 117.212C1223.3 116.459 1222.92 115.557 1222.92 114.506C1222.92 113.455 1223.3 112.553 1224.05 111.8C1224.8 111.047 1225.71 110.67 1226.76 110.67C1227.81 110.67 1228.71 111.047 1229.46 111.8C1230.22 112.553 1230.59 113.455 1230.59 114.506C1230.59 115.202 1230.41 115.841 1230.06 116.423C1229.72 117.006 1229.26 117.474 1228.67 117.83C1228.11 118.17 1227.47 118.341 1226.76 118.341Z" fill="black"/>
</svg>
